<?xml version="1.0" encoding="UTF-8" standalone="no"?>
<!-- Created with Inkscape (http://www.inkscape.org/) -->

<svg
   width="129.90012mm"
   height="29.634056mm"
   viewBox="0 0 129.90012 29.634056"
   version="1.1"
   id="svg5"
   xml:space="preserve"
   xmlns:inkscape="http://www.inkscape.org/namespaces/inkscape"
   xmlns:sodipodi="http://sodipodi.sourceforge.net/DTD/sodipodi-0.dtd"
   xmlns="http://www.w3.org/2000/svg"
   xmlns:svg="http://www.w3.org/2000/svg"><sodipodi:namedview
     id="namedview7"
     pagecolor="#ffffff"
     bordercolor="#000000"
     borderopacity="0.25"
     inkscape:showpageshadow="2"
     inkscape:pageopacity="0.0"
     inkscape:pagecheckerboard="0"
     inkscape:deskcolor="#d1d1d1"
     inkscape:document-units="mm"
     showgrid="false" /><defs
     id="defs2" /><g
     inkscape:label="Layer 1"
     inkscape:groupmode="layer"
     id="layer1"
     transform="translate(-12.275969,-124.77924)"><path
       style="fill:#000000;stroke-width:0.0352778"
       d="m 51.751806,154.39569 c 0,-0.01 0.0079,-0.0176 0.01764,-0.0176 0.0097,0 0.01764,0.008 0.01764,0.0176 0,0.01 -0.0079,0.0176 -0.01764,0.0176 -0.0097,0 -0.01764,-0.008 -0.01764,-0.0176 z m 0.24033,-0.077 c 0.02547,-0.0102 0.05589,-0.009 0.06762,0.003 0.01172,0.0117 -0.0091,0.0201 -0.0463,0.0185 -0.0411,-0.002 -0.04946,-0.0101 -0.02132,-0.0213 z m 0.124206,-0.0347 c 0.01294,-0.0129 0.0341,-0.0129 0.04704,0 0.01293,0.0129 0.0023,0.0235 -0.02352,0.0235 -0.02587,0 -0.03645,-0.0106 -0.02352,-0.0235 z m 0.141111,-0.0353 c 0.01294,-0.0129 0.0341,-0.0129 0.04704,0 0.01293,0.0129 0.0024,0.0235 -0.02352,0.0235 -0.02587,0 -0.03645,-0.0106 -0.02352,-0.0235 z m 0.09784,-0.0273 c 0.01169,-0.0117 0.09104,-0.0432 0.176318,-0.0699 0.13257,-0.0416 -1.485036,-0.0492 -11.155885,-0.0522 -6.221015,-0.002 -11.364515,-0.0139 -11.43,-0.0266 -0.09504,-0.0184 -0.296999,-0.19874 -1.001006,-0.89364 -1.026024,-1.01275 -1.306695,-1.22005 -2.022604,-1.49388 l -0.199896,-0.0765 -3.99608,-0.01 -3.996081,-0.01 -0.08732,0.0873 c -0.07893,0.0789 -0.08732,0.11555 -0.08732,0.3811 0,0.67891 -0.225825,0.99352 -0.77738,1.08301 -0.46997,0.0762 -1.25538,0.0304 -1.481362,-0.0864 -0.143123,-0.074 -0.311053,-0.25373 -0.373969,-0.40023 -0.03285,-0.0765 -0.06308,-0.28462 -0.07475,-0.5146 -0.02979,-0.58744 0.05649,-0.5487 -1.222116,-0.5487 -0.590361,0 -1.079125,-0.0149 -1.130493,-0.0344 -0.110796,-0.0421 -0.12332,-0.19522 -0.02637,-0.32243 0.03526,-0.0463 0.08575,-0.1397 0.11219,-0.20761 0.05633,-0.14467 0.21225,-0.38461 0.375854,-0.57839 0.250747,-0.29698 0.697988,-0.56642 1.14651,-0.69071 0.256984,-0.0712 0.308749,-0.0715 15.798399,-0.0761 9.200597,-0.003 15.418238,-0.0174 15.240709,-0.0358 -0.164923,-0.0171 -0.426861,-0.0587 -0.582083,-0.0923 -0.264587,-0.0574 -1.219088,-0.0625 -15.275278,-0.081 -10.9446,-0.0145 -15.040684,-0.0306 -15.169444,-0.0596 -0.105677,-0.0239 -0.555153,-0.0407 -1.121203,-0.0419 -0.988984,-0.002 -1.10145,-0.0173 -1.271187,-0.17093 -0.186448,-0.16874 -0.182214,-0.11075 -0.16917,-2.31715 0.01111,-1.87975 0.0075,-2.04118 -0.04491,-1.99769 -0.03135,0.026 -0.057,0.0312 -0.057,0.0115 0,-0.0197 0.02381,-0.045 0.05292,-0.0561 0.04527,-0.0174 0.05292,-0.16101 0.05292,-0.99377 v -0.97347 l 0.09458,-0.19314 c 0.121564,-0.24827 0.390722,-0.5165 0.642226,-0.64001 0.181042,-0.0889 0.246558,-0.0995 0.762504,-0.12352 0.310445,-0.0144 0.61207,-0.0253 0.670278,-0.0242 1.843895,0.0356 1.857089,0.0355 1.966085,-0.0189 0.05968,-0.0298 0.134641,-0.0541 0.166585,-0.0541 0.03194,0 0.08033,-0.0198 0.107531,-0.0441 0.04236,-0.0378 0.04243,-0.0349 5.05e-4,0.0203 -0.04187,0.0551 -0.04163,0.0691 0.0017,0.0965 0.02786,0.0176 0.428468,0.0323 0.890248,0.0326 0.68437,4.4e-4 0.858842,-0.009 0.94368,-0.0533 0.09351,-0.0483 0.114864,-0.0482 0.210237,0.001 0.09105,0.0471 0.247897,0.0526 1.102431,0.0386 1.216845,-0.0199 1.032869,-0.0199 2.082015,-2e-5 0.752876,0.0143 0.890628,0.009 0.993458,-0.04 0.108788,-0.0516 0.128899,-0.0517 0.226605,-0.001 0.15311,0.0792 1.720793,0.0821 1.872813,0.003 0.08879,-0.0459 0.112963,-0.0458 0.206975,0.001 0.08957,0.0447 0.259315,0.0505 1.070706,0.0367 1.1876,-0.0202 1.026551,-0.0202 1.947754,-2e-5 0.705454,0.0155 0.778021,0.0115 0.843829,-0.0462 0.06753,-0.0592 0.0706,-0.0593 0.04949,-0.001 -0.0292,0.0801 0.07863,0.0831 0.227108,0.006 0.09748,-0.0504 0.117835,-0.0504 0.224066,0 0.166729,0.0791 1.713399,0.0815 1.864145,0.003 0.08816,-0.046 0.111803,-0.046 0.201095,2.1e-4 0.08835,0.0457 0.91618,0.0523 6.525098,0.0523 h 6.423911 l 0.08146,-0.0815 0.08146,-0.0815 0.026,-2.1179 c 0.0143,-1.16485 0.0146,-2.20915 6.63e-4,-2.32066 -0.01607,-0.12859 -0.05273,-0.23374 -0.10024,-0.28745 -0.0412,-0.0466 -0.257469,-0.16862 -0.480601,-0.2712 -0.537469,-0.24706 -0.561145,-0.26177 -0.493889,-0.30674 0.0291,-0.0195 0.120895,-0.0356 0.20398,-0.0359 0.08309,-2.9e-4 0.208345,-0.0245 0.278354,-0.0537 l 0.12729,-0.0532 -0.108977,-0.10415 c -0.05994,-0.0573 -0.203884,-0.15205 -0.319881,-0.21061 -0.115997,-0.0586 -0.220305,-0.12167 -0.231796,-0.14027 -0.01163,-0.0188 0.05368,-0.0433 0.147361,-0.0552 0.09254,-0.0118 0.20794,-0.0296 0.256447,-0.0397 0.04851,-0.0101 0.130091,-0.0268 0.181298,-0.0372 l 0.0931,-0.0189 -0.109075,-0.10424 c -0.05999,-0.0573 -0.216981,-0.16094 -0.348867,-0.23024 -0.131884,-0.0693 -0.239791,-0.13815 -0.239791,-0.15299 0,-0.0533 0.257072,-0.0732 0.873015,-0.0675 0.34446,0.003 0.652619,-0.005 0.684797,-0.0186 0.03218,-0.0134 0.07589,-0.0668 0.09713,-0.11879 0.03017,-0.0738 0.239623,-3.18019 0.24067,-3.56934 1.42e-4,-0.0485 0.01241,-0.20942 0.02729,-0.35757 0.03214,-0.32006 0.01,-0.43003 -0.107031,-0.53179 -0.108243,-0.0941 -0.11044,-0.1325 -0.0079,-0.13779 0.05973,-0.003 0.0641,-0.008 0.01764,-0.0202 -0.07183,-0.0188 -0.08374,-0.16203 -0.01764,-0.21213 0.02425,-0.0184 0.108952,-0.0519 0.188218,-0.0745 0.188307,-0.0537 0.226296,-0.14281 0.226296,-0.53058 0,-0.21865 0.01529,-0.32914 0.05225,-0.37758 0.08551,-0.11208 0.122996,-0.002 0.123602,0.36201 6.49e-4,0.39016 0.03696,0.48305 0.216997,0.55509 0.163144,0.0653 0.170818,0.10602 0.03336,0.1771 -0.09338,0.0483 -0.105362,0.0755 -0.128748,0.29195 -0.01566,0.14502 -0.0088,0.35943 0.01753,0.54629 0.02382,0.16918 0.03561,0.32006 0.02619,0.33529 -0.0094,0.0152 0.01268,0.50389 0.04911,1.08589 0.03643,0.582 0.06671,1.09462 0.06728,1.13916 5.75e-4,0.0445 0.04001,0.11994 0.08764,0.16757 0.08419,0.0842 0.101158,0.0866 0.612604,0.0866 0.478734,0 0.534367,-0.007 0.618963,-0.0731 0.09204,-0.0724 0.09295,-0.0777 0.09295,-0.53895 0,-0.64571 -0.02156,-0.62265 0.582426,-0.62265 0.515652,0 0.627736,-0.0282 0.68308,-0.17215 0.04105,-0.10672 0.102898,-0.56477 0.148251,-1.09785 0.01733,-0.20373 0.05469,-0.50536 0.08301,-0.67028 0.02833,-0.16493 0.06255,-0.44489 0.07604,-0.62214 l 0.02454,-0.32228 -0.100386,-0.0658 c -0.09146,-0.0599 -0.182054,-0.0658 -1.019157,-0.0658 -0.697375,0 -0.954998,0.012 -1.0691,0.0499 -0.143736,0.0477 -0.154242,0.0462 -0.239593,-0.034 -0.05131,-0.0482 -0.08489,-0.11441 -0.07898,-0.1557 0.01006,-0.0703 0.03666,-0.0722 1.209732,-0.0895 0.852438,-0.0125 1.221235,-0.0301 1.274762,-0.0608 0.09237,-0.0529 0.119253,-0.14893 0.155875,-0.55655 0.01569,-0.17463 0.05687,-0.52007 0.09152,-0.76766 l 0.063,-0.45016 -0.09655,-0.0966 c -0.09636,-0.0965 -0.09769,-0.0967 -0.686745,-0.10915 -0.361283,-0.008 -0.697696,0.004 -0.867361,0.0313 -0.294798,0.0466 -0.338363,0.0317 -0.339654,-0.11578 -4.94e-4,-0.057 0.06593,-0.062 0.872585,-0.0659 0.480219,-0.002 0.92075,-0.0142 0.978958,-0.0264 0.163157,-0.0344 0.208736,-0.17351 0.298627,-0.91174 0.07676,-0.63041 0.07793,-0.67205 0.02177,-0.78065 -0.05797,-0.1121 -0.05728,-0.11714 0.03063,-0.22161 0.07206,-0.0856 0.08995,-0.1447 0.08995,-0.29698 0,-0.22563 0.04454,-0.26311 0.31266,-0.26311 0.227827,0 0.287062,0.0582 0.287062,0.28203 0,0.13237 0.02056,0.1956 0.09071,0.27897 0.08491,0.10091 0.08716,0.11286 0.03528,0.18694 -0.07212,0.10297 -0.07006,0.2057 0.01819,0.90707 0.07845,0.62346 0.130976,0.77679 0.28037,0.81843 0.04784,0.0133 0.486883,0.0258 0.97566,0.0278 0.537923,0.002 0.897111,0.0171 0.910033,0.0381 0.01174,0.019 0.0033,0.0682 -0.01869,0.10937 -0.03296,0.0616 -0.05977,0.0705 -0.15156,0.0506 -0.06133,-0.0134 -0.436954,-0.0315 -0.834711,-0.0404 -0.646106,-0.0144 -0.736357,-0.009 -0.846667,0.0472 -0.110476,0.0567 -0.124576,0.0803 -0.133953,0.22428 -0.0058,0.0885 0.01524,0.31872 0.04669,0.51153 0.03144,0.19281 0.06337,0.45375 0.07094,0.57987 0.02037,0.33933 0.08154,0.55862 0.169954,0.60928 0.05398,0.0309 0.419661,0.0484 1.275126,0.061 1.169638,0.0172 1.199698,0.0194 1.20965,0.0889 0.01509,0.10531 -0.123916,0.24036 -0.21724,0.21107 -0.226131,-0.071 -0.544537,-0.0913 -1.276297,-0.0815 -0.690796,0.009 -0.826682,0.0198 -0.903694,0.0704 -0.04985,0.0327 -0.09769,0.0883 -0.10632,0.12347 -0.0239,0.0976 0.06845,0.88215 0.133117,1.13094 0.03149,0.12115 0.04798,0.24443 0.03665,0.27395 -0.01133,0.0295 0.01056,0.30347 0.04864,0.60876 0.03808,0.3053 0.06943,0.57565 0.06966,0.60078 3.53e-4,0.0251 0.03938,0.0847 0.08701,0.13229 l 0.08659,0.0866 h 1.625985 1.625985 l 0.09087,-0.0909 c 0.07789,-0.0779 0.08836,-0.11326 0.07322,-0.24753 -0.01465,-0.13003 -0.04536,-0.18246 -0.180672,-0.30847 -0.110955,-0.10332 -0.163018,-0.18034 -0.163018,-0.24114 0,-0.0491 -0.03943,-0.14327 -0.08763,-0.2092 -0.250518,-0.3427 -0.229594,-0.19411 -0.229743,-1.63152 v -1.29999 l 0.119945,-0.11994 0.119944,-0.11995 h 0.994019 0.994018 l 0.103121,0.10312 0.10312,0.10312 v 1.35272 1.35272 l -0.08819,0.12979 c -0.04851,0.0714 -0.08826,0.17429 -0.08832,0.22868 -3.53e-4,0.13307 -0.120248,0.32205 -0.23149,0.36435 -0.04976,0.0189 -0.19335,0.0344 -0.319087,0.0344 -0.195686,0 -0.241081,0.0125 -0.315204,0.0866 -0.11781,0.11781 -0.11781,0.30873 0,0.42654 l 0.08659,0.0866 0.927644,-2.5e-4 c 0.859987,-2.1e-4 0.935252,-0.005 1.031903,-0.069 0.10335,-0.0681 0.105226,-0.0681 0.215829,2.5e-4 0.142537,0.0881 0.35589,0.088 0.489726,-2.5e-4 0.10335,-0.0681 0.105227,-0.0681 0.21583,2.5e-4 0.09574,0.0592 0.176696,0.069 0.570523,0.069 0.370519,0 0.467645,0.0105 0.504105,0.0544 0.07265,0.0875 -0.01053,0.13461 -0.266629,0.15092 -0.312068,0.0199 -0.369613,0.0902 -0.369613,0.45206 0,0.32916 -0.05638,0.40094 -0.314939,0.40094 -0.23822,0 -0.320061,0.10104 -0.320061,0.39513 0,0.26166 0.03572,0.32909 0.202576,0.38242 0.07291,0.0233 0.147824,0.0565 0.166476,0.0738 0.02036,0.0189 0.03581,0.55969 0.03868,1.35411 0.0041,1.1363 -0.0027,1.32888 -0.04812,1.36661 -0.03684,0.0306 -0.276959,0.0493 -0.791263,0.0616 -0.678843,0.0162 -0.74241,0.0232 -0.788367,0.0861 -0.07419,0.10164 -0.06107,0.18226 0.04297,0.2641 0.08821,0.0694 0.136412,0.0731 0.945754,0.0731 0.938922,0 0.974045,0.007 0.979636,0.20405 0.0042,0.14785 -0.02338,0.17606 -0.704247,0.72019 -0.315295,0.25198 -0.573263,0.46646 -0.573263,0.47663 0,0.0102 0.03177,0.0102 0.0706,1e-5 0.03883,-0.0102 0.06209,-0.005 0.05168,0.0122 -0.01041,0.0168 -0.07056,0.0403 -0.133661,0.0521 -0.12029,0.0226 -0.584083,0.38059 -0.673043,0.51955 -0.02782,0.0435 -0.06169,0.18618 -0.07525,0.31715 -0.02133,0.20594 -0.01695,0.23812 0.03237,0.23812 0.03137,0 0.05703,0.0159 0.05703,0.0353 0,0.0194 -0.02555,0.0353 -0.05678,0.0353 -0.05063,0 -0.05538,0.0712 -0.0438,0.65595 l 0.01299,0.65595 0.09868,0.0849 0.09868,0.0849 3.164215,-5.2e-4 c 3.31017,-5.5e-4 3.322966,-0.001 3.351537,-0.14947 0.0064,-0.033 -0.0285,-0.10009 -0.07746,-0.14905 -0.08719,-0.0872 -0.09982,-0.089 -0.613163,-0.089 -0.466821,0 -0.541267,-0.008 -0.680703,-0.0768 -0.128192,-0.0629 -0.245332,-0.0809 -0.64656,-0.0993 -0.488146,-0.0224 -0.490361,-0.0229 -0.584581,-0.12838 -0.09617,-0.10763 -0.418543,-0.83031 -0.433924,-0.97275 -0.0093,-0.0864 0.06902,-0.11948 0.197203,-0.0832 0.04212,0.0119 0.219459,0.18656 0.394084,0.3881 0.460986,0.53203 0.387587,0.50883 1.30404,0.41206 0.418571,-0.0442 1.090143,-0.12785 1.492388,-0.18589 0.506984,-0.0732 0.931569,-0.11118 1.383989,-0.12395 0.64437,-0.0182 0.660823,-0.0168 1.298423,0.11005 0.750652,0.14933 1.180077,0.26753 1.362058,0.3749 0.204544,0.12068 0.116931,0.1978 -0.233165,0.20524 -0.226237,0.005 -0.357685,0.11626 -0.357685,0.30329 0,0.0974 0.02215,0.15249 0.08034,0.19961 0.07599,0.0615 0.18971,0.0651 2.09706,0.0651 1.768185,0 2.026376,-0.007 2.095119,-0.0549 0.104475,-0.0732 0.09902,-0.17069 -0.01455,-0.26002 -0.08424,-0.0662 -0.140659,-0.0731 -0.593224,-0.0731 -0.440588,0 -0.518788,-0.009 -0.656703,-0.0762 -0.126615,-0.0616 -0.247639,-0.0804 -0.632805,-0.0985 -0.270934,-0.0127 -0.510491,-0.0412 -0.555671,-0.0662 -0.08803,-0.0487 -0.189668,-0.23375 -0.377473,-0.68744 -0.161589,-0.39036 -0.162362,-0.44753 -0.006,-0.44753 0.107135,0 0.152291,0.0376 0.447693,0.37314 0.41094,0.46673 0.464177,0.5088 0.643787,0.5088 0.198036,0 1.269206,-0.12431 2.176036,-0.25253 0.974658,-0.13781 1.841627,-0.16966 2.328333,-0.0855 0.523328,0.0905 1.411506,0.30242 1.595208,0.3807 0.33534,0.14289 0.310558,0.22872 -0.07802,0.27024 -0.299593,0.032 -0.388296,0.10475 -0.388296,0.31842 0,0.10564 0.01894,0.14079 0.102457,0.19012 0.09353,0.0553 0.275679,0.0605 2.091179,0.0605 1.764182,0 1.997802,-0.006 2.069132,-0.0563 0.10679,-0.0748 0.0913,-0.22552 -0.0294,-0.28629 -0.0582,-0.0293 -0.25685,-0.0446 -0.58428,-0.0449 -0.43478,-4.5e-4 -0.515415,-0.01 -0.652631,-0.0763 -0.124584,-0.0603 -0.253813,-0.081 -0.632806,-0.10127 -0.261937,-0.014 -0.504451,-0.0373 -0.538921,-0.0518 -0.08659,-0.0364 -0.206431,-0.25337 -0.375726,-0.68024 -0.172819,-0.43577 -0.175648,-0.46672 -0.04261,-0.46672 0.131364,0 0.211769,0.0663 0.546781,0.45087 0.416228,0.47779 0.365376,0.46311 1.265675,0.36548 0.412468,-0.0447 1.011888,-0.11922 1.332028,-0.16552 1.3966,-0.20202 2.05837,-0.20621 2.9457,-0.0187 0.74062,0.15652 1.15425,0.27798 1.2736,0.37398 0.13796,0.11096 0.0838,0.15993 -0.21059,0.1904 -0.26693,0.0276 -0.36266,0.0948 -0.39715,0.2786 -0.0201,0.10728 -0.01,0.13644 0.0718,0.20683 l 0.0953,0.0819 2.00005,-5.2e-4 c 2.0856,-5.5e-4 2.15966,-0.006 2.18737,-0.14947 0.006,-0.033 -0.0285,-0.10009 -0.0775,-0.14905 -0.0872,-0.0872 -0.0998,-0.089 -0.61317,-0.089 -0.4674,0 -0.54109,-0.008 -0.6807,-0.077 -0.12731,-0.0626 -0.24254,-0.0808 -0.61692,-0.0971 -0.53402,-0.0234 -0.60445,-0.0533 -0.73419,-0.31156 -0.14518,-0.28906 -0.34474,-0.81869 -0.32221,-0.85515 0.0119,-0.0192 0.0692,-0.035 0.12736,-0.035 0.11271,0 0.11829,0.005 0.55248,0.49935 0.35166,0.40034 0.36094,0.40383 0.93011,0.34962 0.25919,-0.0247 0.76495,-0.0832 1.1239,-0.13006 0.35895,-0.0469 0.89774,-0.11664 1.19732,-0.1551 0.85775,-0.11011 1.387742,-0.0965 2.157892,0.0553 0.92706,0.18274 1.35271,0.31654 1.44992,0.45579 0.0438,0.0628 -0.0252,0.0917 -0.28531,0.11953 -0.28772,0.0308 -0.3763,0.0926 -0.40487,0.2825 -0.014,0.0929 4.6e-4,0.137 0.0663,0.20285 l 0.0842,0.0841 h 6.09681 c 5.526388,0 6.104338,-0.005 6.177228,-0.0563 0.10679,-0.0748 0.0913,-0.22552 -0.0294,-0.28629 -0.0582,-0.0293 -0.25685,-0.0446 -0.58428,-0.0449 -0.43736,-4.6e-4 -0.51461,-0.01 -0.65264,-0.0773 -0.12631,-0.0619 -0.24854,-0.0814 -0.6328,-0.10096 -0.26194,-0.0133 -0.50445,-0.0362 -0.53892,-0.0508 -0.0345,-0.0147 -0.10078,-0.0923 -0.14736,-0.17245 -0.0996,-0.17154 -0.37206,-0.84708 -0.37206,-0.92261 0,-0.0851 0.19364,-0.0628 0.31076,0.0357 0.0575,0.0484 0.21669,0.22008 0.35382,0.38161 0.38496,0.45342 0.34894,0.44342 1.24829,0.34668 0.41283,-0.0444 1.07604,-0.12994 1.4738,-0.19008 0.63634,-0.0962 0.81641,-0.10956 1.49931,-0.11118 0.74881,-0.002 0.79472,0.002 1.30527,0.11359 0.75919,0.1656 1.15652,0.28339 1.27361,0.37757 0.13827,0.11122 0.0837,0.15994 -0.21344,0.1907 -0.26235,0.0272 -0.35681,0.093 -0.39297,0.27381 -0.0182,0.091 -0.005,0.12932 0.0681,0.20272 l 0.0905,0.0905 2.00362,-5.2e-4 c 2.08935,-5.5e-4 2.16323,-0.006 2.19094,-0.14947 0.006,-0.033 -0.0285,-0.10009 -0.0775,-0.14905 -0.0872,-0.0872 -0.0998,-0.089 -0.61316,-0.089 -0.46682,0 -0.54127,-0.008 -0.6807,-0.0768 -0.1279,-0.0627 -0.24523,-0.0809 -0.64095,-0.0991 -0.59499,-0.0274 -0.58741,-0.0219 -0.83595,-0.601 -0.22632,-0.52731 -0.23339,-0.57782 -0.083,-0.59235 0.0995,-0.01 0.13677,0.0146 0.2993,0.19403 0.10211,0.11275 0.29033,0.31216 0.41826,0.44313 0.20992,0.2149 0.24626,0.23812 0.3726,0.23812 0.19714,0 1.57402,-0.16142 2.2887,-0.26832 0.40355,-0.0604 0.81898,-0.0957 1.27,-0.10813 0.66451,-0.0183 0.67584,-0.0173 1.31606,0.11017 0.94242,0.18767 1.36345,0.32004 1.4606,0.4592 0.0438,0.0628 -0.0252,0.0917 -0.28531,0.11953 -0.30518,0.0326 -0.40643,0.10951 -0.40643,0.30868 0,0.092 0.0233,0.14765 0.0815,0.19481 0.0789,0.0639 0.27389,0.066 6.17281,0.066 5.52134,0 6.09883,-0.005 6.17172,-0.0563 0.10679,-0.0748 0.0913,-0.22552 -0.0294,-0.28629 -0.0582,-0.0293 -0.25685,-0.0446 -0.58428,-0.0449 -0.43736,-4.6e-4 -0.51461,-0.01 -0.65264,-0.0773 -0.12632,-0.0619 -0.24855,-0.0814 -0.63281,-0.10096 -0.26193,-0.0133 -0.50371,-0.0359 -0.53727,-0.0502 -0.0336,-0.0143 -0.0915,-0.076 -0.12882,-0.13717 -0.11371,-0.18641 -0.39794,-0.90972 -0.37795,-0.96181 0.0295,-0.0769 0.18197,-0.0573 0.29503,0.0378 0.0567,0.0477 0.2179,0.2205 0.35826,0.384 0.38973,0.45398 0.34694,0.44211 1.24528,0.34562 0.41284,-0.0443 1.01255,-0.11853 1.3327,-0.16487 1.40024,-0.20269 2.05766,-0.207 2.94569,-0.0193 0.74063,0.15652 1.15425,0.27798 1.2736,0.37398 0.13797,0.11097 0.0838,0.15993 -0.21058,0.19041 -0.26693,0.0276 -0.36267,0.0948 -0.39715,0.27859 -0.0201,0.10728 -0.01,0.13644 0.0718,0.20683 l 0.0953,0.0819 h 4.29646 c 4.21388,0 4.29765,0.001 4.35866,0.0687 0.0445,0.0492 0.0621,0.12699 0.0618,0.2734 -0.002,0.87202 -0.0134,1.21855 -0.047,1.38647 -0.091,0.45446 -0.37807,0.86652 -0.82125,1.17884 -0.11825,0.0833 -0.4293,0.27511 -0.69124,0.42618 -0.61288,0.35346 -1.29586,0.81574 -1.76389,1.19387 -1.14385,0.92415 -1.55355,1.42129 -1.89283,2.29679 -0.12109,0.31247 -0.19895,0.45972 -0.29349,0.55507 l -0.12869,0.12978 -34.71117,0.0137 -34.711186,0.0137 -0.264583,0.11038 -0.264584,0.11037 36.424313,0.0132 c 32.01262,0.0116 36.45219,0.0195 36.65456,0.0654 0.66359,0.1506 1.24059,0.61068 1.52467,1.21573 0.0448,0.0954 0.10921,0.21497 0.14315,0.26572 0.034,0.0508 0.0799,0.22801 0.10211,0.39412 0.14615,1.09227 -0.66314,2.18905 -1.77542,2.40613 -0.22533,0.044 -6.0306,0.0509 -43.487978,0.052 -36.85383,0.001 -43.257286,0.008 -43.426951,0.0505 -0.34368,0.085 -0.411149,0.0982 -0.389269,0.0763 z m 14.336649,-4.64021 0.3175,-0.10406 -10.830278,0.003 c -9.239706,0.002 -10.778468,0.01 -10.4775,0.0503 1.07168,0.14435 1.269254,0.14702 11.165417,0.15107 l 9.507361,0.004 0.3175,-0.10406 z m 0.823161,-7.71251 c 0.06025,-0.0422 0.07768,-0.0842 0.06959,-0.16757 -0.0092,-0.0943 -0.03768,-0.12458 -0.187039,-0.19856 -0.255196,-0.1264 -0.783625,-0.14743 -1.005928,-0.04 -0.141418,0.0683 -0.213614,0.0744 -0.883454,0.0744 -0.684548,0 -0.735172,0.004 -0.8224,0.0731 -0.119284,0.0938 -0.117944,0.17727 0.0041,0.25291 0.08684,0.0538 0.235846,0.0602 1.420901,0.0611 1.156116,8.2e-4 1.334075,-0.006 1.404274,-0.0554 z m 8.182462,0.001 c 0.09674,-0.0678 0.09974,-0.15539 0.0093,-0.27042 -0.152143,-0.19342 -0.878696,-0.2759 -1.173904,-0.13327 -0.130912,0.0632 -0.218232,0.0705 -0.843304,0.0705 -0.752027,0 -0.863216,0.0211 -0.90078,0.17075 -0.01655,0.0659 -0.002,0.10436 0.05767,0.1527 0.07422,0.0601 0.173694,0.0646 1.42622,0.0646 1.161535,0 1.357204,-0.008 1.424842,-0.0549 z m 8.149165,0 c 0.17318,-0.1213 0.0445,-0.33244 -0.25811,-0.42351 -0.25681,-0.0773 -0.72825,-0.0669 -0.8982,0.0198 -0.12465,0.0636 -0.20792,0.0705 -0.8436,0.0705 -0.75185,0 -0.87134,0.0214 -0.90682,0.1628 -0.0244,0.0972 0.005,0.14976 0.10479,0.19022 0.0417,0.0168 0.67152,0.0316 1.39965,0.0328 1.14358,0.002 1.33457,-0.005 1.40229,-0.0527 z m 8.151152,-0.001 c 0.0603,-0.0422 0.0777,-0.0842 0.0696,-0.16757 -0.009,-0.0943 -0.0377,-0.12458 -0.18704,-0.19856 -0.2552,-0.1264 -0.78363,-0.14743 -1.00593,-0.04 -0.14142,0.0683 -0.21361,0.0744 -0.883452,0.0744 -0.68455,0 -0.73517,0.004 -0.8224,0.0731 -0.11929,0.0938 -0.11795,0.17727 0.004,0.25291 0.0868,0.0538 0.23584,0.0602 1.420902,0.0611 1.15612,8.2e-4 1.33407,-0.006 1.40427,-0.0554 z m 16.331628,0.001 c 0.17318,-0.1213 0.0445,-0.33244 -0.25811,-0.42351 -0.25411,-0.0765 -0.6926,-0.0665 -0.87126,0.0198 -0.13158,0.0636 -0.21823,0.0705 -0.87548,0.0705 -0.6893,0 -0.73467,0.004 -0.82432,0.0746 -0.0603,0.0474 -0.091,0.10173 -0.0841,0.14905 0.0222,0.15386 0.10934,0.16331 1.51101,0.16386 1.1417,4.5e-4 1.33468,-0.007 1.40229,-0.0544 z m 8.15115,-0.001 c 0.0602,-0.0422 0.0777,-0.0842 0.0696,-0.16757 -0.009,-0.0943 -0.0377,-0.12458 -0.18704,-0.19856 -0.2552,-0.1264 -0.78363,-0.14743 -1.00593,-0.04 -0.14142,0.0683 -0.21361,0.0744 -0.88345,0.0744 -0.68455,0 -0.73518,0.004 -0.8224,0.0731 -0.11929,0.0938 -0.11795,0.17727 0.004,0.25291 0.0868,0.0538 0.23584,0.0602 1.4209,0.0611 1.15611,8.2e-4 1.33407,-0.006 1.40427,-0.0554 z m 16.33163,0.001 c 0.17318,-0.1213 0.0445,-0.33244 -0.25812,-0.42351 -0.25411,-0.0765 -0.69259,-0.0665 -0.87125,0.0198 -0.13129,0.0634 -0.21823,0.0705 -0.86094,0.0705 -0.76189,0 -0.88087,0.0211 -0.91642,0.1628 -0.0244,0.0972 0.005,0.14976 0.10479,0.19022 0.0417,0.0168 0.67151,0.0316 1.39965,0.0328 1.14358,0.002 1.33456,-0.005 1.40229,-0.0527 z m -120.53632,3.18132 c 0,-0.007 0.02778,-0.0351 0.06174,-0.0617 0.05595,-0.0439 0.0572,-0.0426 0.01332,0.0133 -0.04609,0.0588 -0.07505,0.0774 -0.07505,0.0484 z m 17.180277,-3.32043 c 0,-0.01 0.0079,-0.0176 0.01764,-0.0176 0.0097,0 0.01764,0.008 0.01764,0.0176 0,0.01 -0.0079,0.0176 -0.01764,0.0176 -0.0097,0 -0.01764,-0.008 -0.01764,-0.0176 z m -12.364861,-0.0529 c 0.01199,-0.0194 0.02974,-0.0353 0.03944,-0.0353 0.0097,0 0.0078,0.0159 -0.0042,0.0353 -0.01199,0.0194 -0.02974,0.0353 -0.03944,0.0353 -0.0097,0 -0.0078,-0.0159 0.0042,-0.0353 z m -0.361608,-0.0591 c -0.09008,-0.0628 -0.393613,-0.13235 -0.908392,-0.20801 -0.194028,-0.0285 -0.44009,-0.0703 -0.546805,-0.0928 -0.181777,-0.0384 -0.187346,-0.0425 -0.08819,-0.0657 0.05821,-0.0136 0.242524,-0.0266 0.409591,-0.0289 0.256217,-0.004 0.322473,-0.017 0.423333,-0.0864 0.06577,-0.0452 0.179635,-0.12344 0.253039,-0.17384 0.07341,-0.0504 0.179733,-0.1018 0.236285,-0.11422 0.05655,-0.0124 0.151808,-0.0727 0.211681,-0.13393 l 0.108861,-0.11134 0.07819,0.0944 c 0.043,0.0519 0.171239,0.13475 0.284967,0.1841 0.113729,0.0494 0.261125,0.13745 0.327548,0.19577 0.137818,0.121 0.207276,0.13081 0.330949,0.0467 l 0.08723,-0.0593 -0.0672,0.0769 -0.0672,0.0769 0.261232,0.004 c 0.143677,0.002 0.308856,0.0153 0.367065,0.0289 0.09904,0.0231 0.09338,0.0273 -0.08819,0.0651 -0.106715,0.0223 -0.31309,0.0565 -0.458611,0.0761 -0.338744,0.0457 -0.466329,0.084 -0.6084,0.18264 l -0.114794,0.0797 0.07055,-0.0816 0.07056,-0.0816 -0.123472,0.0255 c -0.06791,0.014 -0.175974,0.0557 -0.240142,0.0926 -0.06417,0.0369 -0.11973,0.0663 -0.123472,0.0653 -0.0037,-0.001 -0.04253,-0.0268 -0.08619,-0.0572 z m 6.473686,-0.008 c -0.08924,-0.0572 -0.32963,-0.10679 -1.331939,-0.27464 -0.357121,-0.0598 -0.364718,-0.0629 -0.211667,-0.0868 0.08731,-0.0136 0.282825,-0.0259 0.434472,-0.0273 0.295888,-0.003 0.338686,-0.0175 0.574659,-0.19765 0.08449,-0.0645 0.189661,-0.12814 0.233706,-0.14143 0.174801,-0.0528 0.307842,-0.13227 0.328105,-0.19611 0.02781,-0.0876 0.09397,-0.0855 0.150379,0.005 0.02473,0.0396 0.159515,0.12428 0.299527,0.1882 0.140013,0.0639 0.277226,0.14369 0.304916,0.17728 0.09707,0.11774 0.240946,0.16218 0.538804,0.16642 0.161036,0.002 0.340419,0.0153 0.398627,0.0289 0.099,0.0231 0.0933,0.0273 -0.08819,0.0649 -0.106715,0.0222 -0.273402,0.05 -0.370416,0.0618 -0.386122,0.0472 -0.923538,0.16737 -1.033892,0.23126 -0.06417,0.0371 -0.11973,0.0664 -0.123472,0.065 -0.0037,-0.001 -0.05037,-0.0305 -0.103614,-0.0647 z m 6.310661,0.006 c 0.01511,-0.0578 -0.03037,-0.0739 -0.399651,-0.14161 -0.229184,-0.042 -0.496074,-0.0863 -0.593088,-0.0985 -0.09701,-0.0121 -0.255764,-0.0396 -0.352778,-0.0611 -0.169335,-0.0375 -0.172157,-0.04 -0.07055,-0.0635 0.05821,-0.0134 0.237845,-0.0263 0.399194,-0.0286 0.310835,-0.004 0.368935,-0.0234 0.580795,-0.18944 0.07333,-0.0575 0.216203,-0.13529 0.3175,-0.17291 0.101298,-0.0376 0.218799,-0.1102 0.261115,-0.16131 l 0.07694,-0.0929 0.108582,0.11623 c 0.09504,0.10175 0.115963,0.11024 0.167793,0.0681 0.0515,-0.0419 0.05632,-0.0404 0.03698,0.0112 -0.01688,0.0451 0.0034,0.065 0.08421,0.0828 0.05854,0.0129 0.156856,0.0666 0.218474,0.11952 0.232749,0.19975 0.272086,0.2144 0.587312,0.21877 0.165457,0.002 0.348456,0.0152 0.406664,0.0286 0.101602,0.0235 0.09878,0.026 -0.07056,0.0635 -0.09701,0.0215 -0.255764,0.0491 -0.352778,0.0615 -0.416032,0.0529 -0.961184,0.17199 -1.068379,0.23347 -0.09328,0.0535 -0.128841,0.0584 -0.182343,0.0249 -0.05142,-0.0321 -0.07847,-0.0316 -0.119471,0.002 -0.04434,0.0368 -0.05022,0.0333 -0.03596,-0.0212 z m -14.721674,-0.35041 c 0.01293,-0.0129 0.0341,-0.0129 0.04704,0 0.01293,0.0129 0.0024,0.0235 -0.02352,0.0235 -0.02587,0 -0.03645,-0.0106 -0.02352,-0.0235 z m 3.986389,0 c 0.01293,-0.0129 0.0341,-0.0129 0.04704,0 0.01293,0.0129 0.0024,0.0235 -0.02352,0.0235 -0.02587,0 -0.03645,-0.0106 -0.02352,-0.0235 z m 2.521626,-5.8e-4 c 0.02547,-0.0102 0.05589,-0.009 0.06762,0.003 0.01172,0.0117 -0.0091,0.0201 -0.0463,0.0185 -0.0411,-0.002 -0.04946,-0.0101 -0.02131,-0.0213 z m 3.969485,5.8e-4 c 0.01293,-0.0129 0.0341,-0.0129 0.04704,0 0.01293,0.0129 0.0024,0.0235 -0.02352,0.0235 -0.02587,0 -0.03645,-0.0106 -0.02352,-0.0235 z m 2.434167,0 c 0.01293,-0.0129 0.0341,-0.0129 0.04704,0 0.01293,0.0129 0.0024,0.0235 -0.02352,0.0235 -0.02587,0 -0.03645,-0.0106 -0.02352,-0.0235 z m 4.009907,0.006 c 0,-0.01 0.0079,-0.0176 0.01764,-0.0176 0.0097,0 0.01764,0.008 0.01764,0.0176 0,0.01 -0.0079,0.0176 -0.01764,0.0176 -0.0097,0 -0.01764,-0.008 -0.01764,-0.0176 z m -13.740694,-0.22931 c 0.01199,-0.0194 0.02974,-0.0353 0.03944,-0.0353 0.0097,0 0.0078,0.0159 -0.0042,0.0353 -0.01199,0.0194 -0.02974,0.0353 -0.03944,0.0353 -0.0097,0 -0.0078,-0.0159 0.0042,-0.0353 z m 0.123472,-0.0882 c 0,-0.01 0.0079,-0.0176 0.01764,-0.0176 0.0097,0 0.01764,0.008 0.01764,0.0176 0,0.01 -0.0079,0.0176 -0.01764,0.0176 -0.0097,0 -0.01764,-0.008 -0.01764,-0.0176 z m 11.976805,-0.26459 c 0.01199,-0.0194 0.02974,-0.0353 0.03944,-0.0353 0.0097,0 0.0078,0.0159 -0.0042,0.0353 -0.01199,0.0194 -0.02974,0.0353 -0.03944,0.0353 -0.0097,0 -0.0078,-0.0159 0.0042,-0.0353 z m 0.05292,-0.0882 c 0,-0.01 0.0079,-0.0176 0.01764,-0.0176 0.0097,0 0.01764,0.008 0.01764,0.0176 0,0.01 -0.0079,0.0176 -0.01764,0.0176 -0.0097,0 -0.01764,-0.008 -0.01764,-0.0176 z m 27.507847,-0.21739 c 0.02425,-0.01 0.06394,-0.01 0.08819,0 0.02425,0.01 0.0044,0.0178 -0.0441,0.0178 -0.04851,0 -0.06835,-0.008 -0.0441,-0.0178 z m 3.360209,-0.45289 c 0,-0.01 0.0079,-0.0176 0.01764,-0.0176 0.0097,0 0.01764,0.008 0.01764,0.0176 0,0.01 -0.0079,0.0176 -0.01764,0.0176 -0.0097,0 -0.01764,-0.008 -0.01764,-0.0176 z m -2.54882,-0.71128 c 0.02425,-0.01 0.06394,-0.01 0.08819,0 0.02425,0.01 0.0044,0.0178 -0.0441,0.0178 -0.04851,0 -0.06835,-0.008 -0.0441,-0.0178 z m 0.196967,-0.0354 c 0.01294,-0.0129 0.0341,-0.0129 0.04704,0 0.01293,0.0129 0.0024,0.0235 -0.02352,0.0235 -0.02587,0 -0.03645,-0.0106 -0.02352,-0.0235 z m -9.689628,-13.79361 c -0.01294,-0.0129 -0.02352,-0.0466 -0.02352,-0.0749 0,-0.0417 0.01,-0.0431 0.05292,-0.007 0.02911,0.0242 0.05292,0.0579 0.05292,0.0749 0,0.0365 -0.04881,0.0409 -0.08231,0.007 z m 2.645354,-0.0704 c 0.01915,-0.1078 0.01417,-0.11312 -0.148735,-0.15914 -0.134383,-0.0379 -0.175348,-0.068 -0.202113,-0.14831 -0.047,-0.14099 0.0029,-0.16192 0.387248,-0.16256 0.389865,-6.5e-4 0.514639,0.0368 0.49863,0.14945 -0.0089,0.0629 -0.04774,0.0882 -0.187653,0.12249 -0.165411,0.0405 -0.220292,0.0817 -0.324704,0.24369 -0.03676,0.057 -0.03981,0.0509 -0.02267,-0.0456 z"
       id="path318"/></g></svg>
