<?xml version="1.0" encoding="UTF-8" standalone="no"?>
<!-- Created with Inkscape (http://www.inkscape.org/) -->

<svg
   width="51.970589mm"
   height="20.066284mm"
   viewBox="0 0 51.970589 20.066284"
   version="1.1"
   id="svg5"
   xml:space="preserve"
   inkscape:export-filename="1.svg"
   inkscape:export-xdpi="96"
   inkscape:export-ydpi="96"
   xmlns:inkscape="http://www.inkscape.org/namespaces/inkscape"
   xmlns:sodipodi="http://sodipodi.sourceforge.net/DTD/sodipodi-0.dtd"
   xmlns="http://www.w3.org/2000/svg"
   xmlns:svg="http://www.w3.org/2000/svg"><sodipodi:namedview
     id="namedview7"
     pagecolor="#ffffff"
     bordercolor="#000000"
     borderopacity="0.25"
     inkscape:showpageshadow="2"
     inkscape:pageopacity="0.0"
     inkscape:pagecheckerboard="0"
     inkscape:deskcolor="#d1d1d1"
     inkscape:document-units="mm"
     showgrid="false" /><defs
     id="defs2" /><g
     inkscape:label="Layer 1"
     inkscape:groupmode="layer"
     id="layer1"
     transform="translate(-86.017389,-168.49299)"><path
       style="fill:#000000;stroke-width:0.0352778"
       d="m 86.872249,188.52046 c -0.52046,-0.14064 -0.856584,-0.57177 -0.854852,-1.09648 4.72e-4,-0.14312 0.02559,-0.31499 0.05913,-0.40453 0.113854,-0.30399 0.497414,-0.66961 0.658316,-0.62753 0.07909,0.0207 0.209024,-0.13833 0.671592,-0.82193 0.124728,-0.18433 0.235675,-0.34308 0.24655,-0.35278 0.01088,-0.01 0.263028,-0.36423 0.56034,-0.78784 0.297312,-0.42362 0.55829,-0.777 0.57995,-0.78529 0.06399,-0.0245 41.861185,-0.0341 41.861185,-0.01 0,0.0123 0.0595,0.0227 0.13229,0.0231 0.0728,4e-4 0.26723,0.0196 0.43216,0.0426 0.16492,0.0231 0.37526,0.0441 0.46743,0.0467 0.0922,0.003 0.16757,0.0189 0.16757,0.0363 0,0.0174 0.0255,0.0104 0.0567,-0.0155 0.0481,-0.0399 0.0639,-0.0373 0.10403,0.0176 0.0335,0.0458 0.0727,0.0583 0.13437,0.0428 0.0515,-0.0129 0.0925,-0.006 0.10029,0.0178 0.0383,0.11494 0.71006,-0.008 0.76042,-0.13952 0.01,-0.026 -0.018,-0.0816 -0.0622,-0.12367 -0.0442,-0.042 -0.069,-0.0526 -0.0552,-0.0235 0.0138,0.0291 0,0.022 -0.0305,-0.0157 -0.0369,-0.0455 -0.10265,-0.0698 -0.1953,-0.0721 -0.0768,-0.002 -0.15167,-0.0155 -0.16637,-0.0302 -0.0147,-0.0147 5.6e-4,-0.0163 0.0339,-0.003 0.0334,0.0128 0.0607,0.008 0.0607,-0.0114 0,-0.019 -0.0437,-0.0435 -0.097,-0.0542 -0.0534,-0.0108 -0.12877,-0.0299 -0.16757,-0.0425 -0.0528,-0.0172 -0.0451,-0.001 0.0307,0.064 0.056,0.0481 0.0927,0.1085 0.0822,0.13512 -0.0151,0.0379 -0.0197,0.0383 -0.0219,0.002 -0.003,-0.0557 -0.21034,-0.23566 -0.27181,-0.2363 -0.0239,-2.4e-4 -0.0552,-0.0121 -0.0695,-0.0264 -0.0388,-0.0388 -0.0923,-0.0314 -0.0672,0.009 0.012,0.0194 0.007,0.0353 -0.0118,0.0353 -0.0185,0 -0.0434,-0.0255 -0.0553,-0.0567 -0.0157,-0.041 -0.0469,-0.0503 -0.11256,-0.0339 -0.0588,0.0148 -0.0828,0.01 -0.0682,-0.0139 0.0125,-0.0202 0.007,-0.0367 -0.0126,-0.0367 -0.0194,0 -0.0463,0.0179 -0.0599,0.0398 -0.0168,0.0271 -0.035,0.0213 -0.0572,-0.0184 -0.0179,-0.032 -0.0484,-0.0484 -0.0678,-0.0364 -0.0194,0.012 -0.0825,0.002 -0.14033,-0.0218 -0.0922,-0.0382 -0.1111,-0.0353 -0.15401,0.0231 -0.0476,0.0647 -0.0488,0.0646 -0.0427,-0.004 0.005,-0.0518 -0.0173,-0.0725 -0.082,-0.0778 -0.0485,-0.004 -0.21519,-0.0249 -0.37042,-0.0466 -0.15522,-0.0216 -0.3327,-0.0336 -0.3944,-0.0266 -0.0617,0.007 -0.10433,3e-5 -0.0947,-0.0155 0.01,-0.0155 -2.59379,-0.0278 -5.7853,-0.0273 -4.56468,7.2e-4 -5.80648,0.0102 -5.82031,0.0444 -0.0139,0.0343 -0.0182,0.0342 -0.0204,-2.9e-4 -0.002,-0.0348 -2.87462,-0.0437 -13.957,-0.0437 -11.089659,4e-5 -13.949148,0.009 -13.929545,0.0438 0.01928,0.0342 0.01429,0.0341 -0.02284,-3.8e-4 -0.03498,-0.0325 -0.252575,-0.0442 -0.825383,-0.0446 -0.427831,-2.8e-4 -0.799036,-0.014 -0.824899,-0.0303 -0.03804,-0.0241 -0.04478,-0.25495 -0.03528,-1.20773 l 0.01174,-1.17791 0.116519,-0.14491 c 0.07645,-0.0951 0.164653,-0.15933 0.256484,-0.18684 0.07698,-0.0231 0.159335,-0.0729 0.183009,-0.11086 0.02367,-0.0379 0.06119,-0.0689 0.08336,-0.0689 0.02217,0 0.04989,-0.0357 0.06159,-0.0794 0.0117,-0.0436 0.02149,-0.72679 0.02175,-1.51807 3.78e-4,-1.1263 -0.0098,-1.46336 -0.04697,-1.55223 -0.0487,-0.1165 -0.164215,-0.23897 -0.164215,-0.1741 0,0.0503 -0.415089,0.0112 -0.537389,-0.0506 -0.14879,-0.0752 -0.203515,-0.21834 -0.202924,-0.53084 5.73e-4,-0.30338 0.03831,-0.40802 0.18708,-0.5187 0.08787,-0.0654 0.162468,-0.076 0.642928,-0.0916 0.735758,-0.0239 0.700136,0.0139 0.71591,-0.75938 0.0065,-0.31965 0.02636,-0.58117 0.0441,-0.58117 0.01788,0 0.03224,-0.21285 0.03224,-0.478 0,-0.50177 0.03528,-0.65084 0.166264,-0.70247 0.07241,-0.0285 1.917885,-0.19406 2.172492,-0.19484 0.133006,-4.1e-4 0.187684,0.018 0.255764,0.0861 0.08422,0.0842 0.08659,0.10104 0.08659,0.61442 0,0.2903 0.01409,0.53312 0.0313,0.53959 0.01763,0.007 0.03689,1.07975 0.0441,2.45761 l 0.01279,2.44586 -0.115209,0.10296 c -0.143191,0.12797 -0.150166,0.12806 -1.228848,0.0148 -0.9142,-0.096 -1.162519,-0.107 -1.195943,-0.0529 -0.01199,0.0194 -0.05301,0.0353 -0.09115,0.0353 -0.101348,0 -0.138224,0.13526 -0.137674,0.50501 5.01e-4,0.33744 0.02235,0.48277 0.07259,0.48277 0.01626,0 0.07015,0.0406 0.119754,0.0902 l 0.0902,0.0902 2.574661,-0.007 c 1.781503,-0.005 2.598323,-0.0194 2.651472,-0.0461 0.08655,-0.0435 0.09233,-0.07 0.127592,-0.58544 l 0.02534,-0.37042 h 0.141111 0.141111 l 0.02344,0.38806 c 0.01289,0.21343 0.03002,0.41803 0.03806,0.45467 0.0295,0.13435 0.126499,0.16269 0.556925,0.16269 0.393496,0 0.416373,-0.004 0.539819,-0.097 0.0709,-0.0533 0.138247,-0.1367 0.149659,-0.1852 0.04018,-0.17077 0.09264,-0.27746 0.150537,-0.30613 0.03218,-0.0159 0.656533,-0.0369 1.387455,-0.0466 l 1.328953,-0.0177 0.0914,-0.086 c 0.0559,-0.0525 0.0788,-0.0986 0.0589,-0.11853 -0.0189,-0.0189 -0.02,-0.0715 -0.002,-0.1257 0.0353,-0.10956 0.17828,-1.05637 0.28037,-1.85703 0.0905,-0.70966 0.17002,-1.06701 0.24995,-1.12299 0.0489,-0.0343 0.098,-0.27858 0.24248,-1.20624 0.0996,-0.6398 0.20413,-1.28234 0.23223,-1.42786 0.0422,-0.21831 0.51078,-3.18231 0.51078,-3.23065 0,-0.008 -0.0235,-0.0149 -0.0522,-0.0149 -0.0469,0 -0.19474,-0.23489 -0.19474,-0.30935 0,-0.0165 0.0225,-0.0608 0.05,-0.0984 0.0473,-0.0647 0.11348,-0.0695 1.20826,-0.0861 1.06024,-0.0162 1.17019,-0.0235 1.29936,-0.0872 0.0776,-0.0382 0.14752,-0.0738 0.15536,-0.0789 0.008,-0.005 -0.0377,-0.12214 -0.10121,-0.2599 -0.0959,-0.20799 -0.11258,-0.28033 -0.0986,-0.42641 0.0526,-0.54697 0.7279,-0.71914 1.06032,-0.27032 0.0384,0.0519 0.0775,0.17356 0.0868,0.27032 0.014,0.14608 -0.003,0.21842 -0.0986,0.42641 -0.0635,0.13776 -0.10905,0.25472 -0.10121,0.2599 0.13416,0.0887 0.34364,0.1441 0.59633,0.15784 0.32653,0.0178 0.42334,0.0655 0.42334,0.20886 0,0.0687 -0.0409,0.10281 -0.22619,0.18856 l -0.2262,0.1047 h -0.90269 c -0.88536,0 -0.9027,0.001 -0.9027,0.072 0,0.10425 0.2461,2.50592 0.26645,2.60026 l 0.0171,0.0794 h 0.89459 c 0.78938,0 0.90028,0.007 0.94301,0.0584 0.12751,0.15375 0.11714,0.15328 3.36339,0.15328 h 3.08794 v 0.0882 c 0,0.0485 0.0159,0.0882 0.0353,0.0882 0.0214,0 0.0353,0.15287 0.0353,0.38806 0,0.23518 -0.0139,0.38805 -0.0353,0.38805 -0.0225,0 -0.0353,0.29986 -0.0353,0.82903 v 0.82833 h 0.0928 c 0.0604,0 0.13353,0.0431 0.2093,0.12347 l 0.11645,0.12347 h 1.2227 c 1.16929,0 1.22663,0.003 1.31241,0.0706 0.0829,0.0652 0.14311,0.0705 0.79398,0.0705 0.85113,0 0.88741,0.0111 1.04195,0.31798 l 0.10437,0.20727 -0.12125,0.16953 c -0.29744,0.41587 -0.48911,0.86062 -0.44447,1.03132 0.0188,0.0718 0.0367,0.0731 1.06955,0.0731 0.91483,0 1.05314,0.007 1.07136,0.0545 0.0382,0.0995 0.25187,0.15716 0.58234,0.15716 0.17366,0 0.34144,0.01 0.37285,0.0219 0.13344,0.0512 0.16031,0.1961 0.16081,0.8671 2.9e-4,0.35506 0.01,0.67732 0.0209,0.71612 0.0113,0.0388 0.0699,0.11025 0.13042,0.15875 l 0.10996,0.0882 0.88334,0.007 c 0.48583,0.004 1.11352,0.009 1.39486,0.011 0.28134,0.002 0.62265,0.0189 0.75847,0.0372 0.13582,0.0183 0.46126,0.0407 0.72319,0.0497 0.26194,0.009 0.69357,0.034 0.95917,0.0556 0.3924,0.0319 0.50095,0.0305 0.5791,-0.008 0.10982,-0.0537 0.11565,-0.0736 0.14854,-0.50567 l 0.0242,-0.3175 h 0.15875 0.15875 l 0.0238,0.38441 c 0.0315,0.50937 0.0384,0.51634 0.54704,0.55504 2.01557,0.15336 2.45499,0.17364 2.54107,0.11724 0.0468,-0.0307 0.0795,-0.0727 0.0726,-0.0934 -0.007,-0.0207 0.005,-0.12683 0.0271,-0.23588 l 0.0396,-0.19827 1.22406,-0.009 c 0.96115,-0.007 1.22726,2.8e-4 1.23899,0.0353 0.008,0.0245 0.0211,0.17479 0.0287,0.33397 0.008,0.16092 0.0335,0.31321 0.0582,0.34302 0.0548,0.066 0.17149,0.0877 0.60185,0.11184 0.46124,0.0259 0.71749,0.0442 0.99554,0.0712 0.25904,0.0252 0.39287,-0.024 0.40768,-0.14972 0.004,-0.0363 0.0197,-0.15337 0.0343,-0.26008 l 0.0265,-0.19403 h 0.44098 0.44097 l 0.0199,0.23084 c 0.0109,0.12696 0.0317,0.24999 0.0462,0.2734 0.0149,0.0241 0.008,0.0426 -0.0154,0.0426 -0.0539,0 0.0218,0.0949 0.11578,0.14523 0.0365,0.0196 0.45059,0.0664 0.92012,0.1042 1.2082,0.0971 1.68698,0.23142 1.71119,0.47995 0.01,0.0975 -0.009,0.12498 -0.1535,0.22419 -0.42402,0.29173 -1.20423,0.60416 -3.12355,1.25077 -1.22451,0.41253 -1.27658,0.43236 -1.46614,0.55818 l -0.11097,0.0737 0.0929,0.0482 c 0.0511,0.0265 0.22532,0.0713 0.38714,0.0995 0.54911,0.0958 0.90783,0.26621 1.28156,0.60897 0.58191,0.53367 0.87483,1.40469 0.72617,2.15927 -0.1733,0.87963 -0.7692,1.53698 -1.66613,1.83792 l -0.24695,0.0829 -23.33625,0.007 c -18.424642,0.005 -23.370184,-0.003 -23.497489,-0.037 z m 45.901661,-4.80549 c 0.002,-0.0411 0.0101,-0.0495 0.0213,-0.0213 0.0102,0.0255 0.009,0.0559 -0.003,0.0676 -0.0117,0.0117 -0.0201,-0.009 -0.0185,-0.0463 z m -0.0887,-0.0396 c -0.0191,-0.0503 -0.0151,-0.0543 0.0197,-0.0197 0.0241,0.0239 0.035,0.0524 0.0241,0.0633 -0.0109,0.0109 -0.0306,-0.009 -0.0438,-0.0435 z m -1.53685,-0.0456 c -0.0318,-0.0205 -0.0361,-0.0344 -0.0109,-0.0347 0.0231,-2.9e-4 0.0518,0.0153 0.0638,0.0347 0.0271,0.0438 0.0148,0.0438 -0.0529,0 z m 0.33514,0 c -0.012,-0.0194 0.004,-0.0353 0.0353,-0.0353 0.0314,0 0.0473,0.0159 0.0353,0.0353 -0.012,0.0194 -0.0279,0.0353 -0.0353,0.0353 -0.007,0 -0.0233,-0.0159 -0.0353,-0.0353 z m 1.20241,-0.0932 c -0.0176,-0.0458 -0.0121,-0.0495 0.0259,-0.0179 0.0265,0.022 0.0611,0.0282 0.077,0.0138 0.0159,-0.0144 0.0174,-0.006 0.004,0.018 -0.0351,0.061 -0.08,0.0551 -0.10644,-0.0138 z m -1.6669,-0.31099 c 0,-0.0283 0.0194,-0.0588 0.043,-0.0679 0.0279,-0.0107 0.0368,0.007 0.0253,0.0514 -0.0208,0.0796 -0.0683,0.0911 -0.0683,0.0165 z m 0.37629,0.0161 c 0.0291,-0.0188 0.0688,-0.0342 0.0882,-0.0342 0.0194,0 0.0115,0.0154 -0.0176,0.0342 -0.0291,0.0188 -0.0688,0.0342 -0.0882,0.0342 -0.0194,0 -0.0115,-0.0154 0.0176,-0.0342 z m -18.415,-9.34861 v -0.38806 h 0.67028 0.67028 v 0.38806 0.38805 h -0.67028 -0.67028 z m 1.44639,0 v -0.38806 h 0.47625 0.47625 v 0.38806 0.38805 h -0.47625 -0.47625 z"
       id="path923" /></g></svg>
