<?xml version="1.0" encoding="UTF-8" standalone="no"?>
<!-- Created with Inkscape (http://www.inkscape.org/) -->

<svg
   width="80.286407mm"
   height="22.265442mm"
   viewBox="0 0 80.286407 22.265442"
   version="1.1"
   id="svg5"
   xml:space="preserve"
   inkscape:export-filename="2.svg"
   inkscape:export-xdpi="96"
   inkscape:export-ydpi="96"
   xmlns:inkscape="http://www.inkscape.org/namespaces/inkscape"
   xmlns:sodipodi="http://sodipodi.sourceforge.net/DTD/sodipodi-0.dtd"
   xmlns="http://www.w3.org/2000/svg"
   xmlns:svg="http://www.w3.org/2000/svg"><sodipodi:namedview
     id="namedview7"
     pagecolor="#ffffff"
     bordercolor="#000000"
     borderopacity="0.25"
     inkscape:showpageshadow="2"
     inkscape:pageopacity="0.0"
     inkscape:pagecheckerboard="0"
     inkscape:deskcolor="#d1d1d1"
     inkscape:document-units="mm"
     showgrid="false" /><defs
     id="defs2" /><g
     inkscape:label="Layer 1"
     inkscape:groupmode="layer"
     id="layer1"
     transform="translate(-57.609075,-165.42709)"><path
       style="fill:#000000;stroke-width:0.0352778"
       d="m 58.546671,187.6318 c -0.0305,-0.0305 -0.0554,-0.0633 -0.0554,-0.073 0,-0.01 -0.0563,-0.27442 -0.12509,-0.58839 -0.0688,-0.31396 -0.13064,-0.65816 -0.13743,-0.76487 -0.0192,-0.30149 -0.0538,-0.39733 -0.18463,-0.51153 -0.1377,-0.12018 -0.18574,-0.27427 -0.18697,-0.59972 -8e-4,-0.21333 -0.0132,-0.32649 -0.14511,-1.32292 -0.0788,-0.59534 -0.1307,-2.07326 -0.0871,-2.48047 l 0.0252,-0.23516 28.96911,-0.0102 28.969109,-0.0102 0.67299,-0.0764 c 3.08906,-0.35064 6.04322,-0.86046 15.07854,-2.60223 1.85297,-0.3572 3.43253,-0.65957 3.51014,-0.67193 0.0776,-0.0124 0.38717,-0.13912 0.68792,-0.2817 l 0.5468,-0.25922 0.74083,-0.12264 c 0.97627,-0.16161 1.01572,-0.16659 1.06682,-0.13482 0.0298,0.0185 -0.15644,0.22974 -0.58209,0.66034 -0.85286,0.8628 -1.70602,1.87816 -2.82927,3.36716 -0.93209,1.23561 -2.39583,3.31277 -2.46776,3.50195 -0.019,0.0499 -0.15686,0.25469 -0.30644,0.45513 -0.14958,0.20045 -0.31047,0.45176 -0.35755,0.55848 -0.0471,0.10671 -0.10222,0.22852 -0.12255,0.27068 -0.0203,0.0422 -0.0262,0.1196 -0.013,0.17209 0.0301,0.11999 0.20512,0.29806 0.29294,0.29806 0.0777,0 0.37153,0.17798 0.51556,0.31224 0.12869,0.11997 0.23489,0.32692 0.23489,0.45771 0,0.20584 -0.22828,0.3832 -0.59264,0.46043 -0.13485,0.0286 -2.18931,0.0395 -7.37305,0.0391 -3.95236,-3.1e-4 -18.55375,0.0177 -32.447529,0.0401 l -25.26142,0.0407 -0.36789,-0.10901 c -0.44412,-0.1316 -1.05232,-0.25669 -1.97303,-0.40579 -0.67349,-0.10907 -0.71453,-0.11152 -1.95791,-0.11687 -0.6985,-0.003 -1.397,-0.009 -1.55222,-0.0141 l -0.28223,-0.009 0.31367,-0.0278 c 0.17251,-0.0153 0.35082,-0.0371 0.39623,-0.0485 0.11713,-0.0294 0.17773,-0.17391 0.19823,-0.47273 0.0253,-0.36863 -0.0181,-0.41234 -0.50317,-0.50702 -0.20332,-0.0397 -0.45048,-0.0793 -0.54924,-0.0881 -0.1631,-0.0145 -0.18932,-0.006 -0.2862,0.0906 -0.0998,0.0998 -0.17291,0.29482 -0.13406,0.35767 0.009,0.0153 -0.0462,0.33151 -0.12363,0.70262 -0.0775,0.37112 -0.14085,0.68125 -0.14085,0.68919 0,0.008 -0.025,0.0394 -0.0554,0.0699 -0.0812,0.0812 -0.93681,0.0812 -1.01802,0 z m 6.55915,-0.83584 c 0.67156,-0.008 0.79405,-0.0186 0.90926,-0.0752 l 0.13315,-0.0654 -0.11518,-0.085 c -0.12597,-0.0929 -0.35709,-0.171 -0.88056,-0.29742 -0.18776,-0.0453 -0.3353,-0.0923 -0.32787,-0.10431 0.0175,-0.0284 -0.56311,-0.12963 -1.10829,-0.19331 -0.6075,-0.071 -0.69029,-0.0273 -0.67782,0.35777 0.009,0.27639 0.0584,0.39843 0.18275,0.45079 0.0569,0.024 0.28883,0.0357 0.60057,0.0305 0.27934,-0.005 0.85713,-0.013 1.28399,-0.0184 z m -6.82625,-6.15339 -0.0882,-0.0138 0.0176,-1.33544 c 0.0165,-1.24985 0.0219,-1.3402 0.0848,-1.40965 0.0861,-0.0951 0.23809,-0.0951 0.3242,-4e-5 0.0588,0.0649 0.0696,0.14994 0.0862,0.6791 l 0.019,0.60493 0.31842,0.54681 c 0.17513,0.30074 0.35821,0.6103 0.40684,0.68791 0.0486,0.0776 0.10014,0.16096 0.11447,0.18521 0.0191,0.0323 -0.012,0.0441 -0.11602,0.0441 -0.10648,0 -0.1374,-0.0122 -0.12336,-0.0488 0.0103,-0.0268 -0.005,-0.10538 -0.0338,-0.17453 -0.0795,-0.19023 -0.33606,-0.55278 -0.3912,-0.55278 -0.0268,0 -0.0562,-0.0198 -0.0653,-0.0441 -0.009,-0.0243 -0.0433,0.0176 -0.076,0.0929 -0.0438,0.10122 -0.0564,0.21338 -0.048,0.42906 l 0.0113,0.29201 -0.12347,0.0203 c -0.12694,0.0209 -0.16569,0.0205 -0.3175,-0.003 z m 5.54163,-0.006 c -0.0792,-0.0222 -0.0377,-0.0751 0.58832,-0.75024 0.37043,-0.39951 0.69978,-0.73645 0.73189,-0.74878 0.0321,-0.0123 0.68486,-0.0224 1.45057,-0.0224 h 1.39219 l 0.0866,-0.0866 0.0866,-0.0866 v -1.03445 c 0,-1.14387 -0.003,-1.1627 -0.22207,-1.21936 -0.15393,-0.0399 -0.1618,-0.18309 -0.0123,-0.22308 0.20664,-0.0553 0.23434,-0.11379 0.23434,-0.49512 0,-0.51731 -0.0605,-0.48842 1.02305,-0.48842 1.07995,0 1.02306,-0.0263 1.02306,0.47234 0,0.40584 0.0387,0.47144 0.29986,0.50875 0.15623,0.0223 0.17639,0.035 0.17639,0.11072 0,0.0666 -0.025,0.092 -0.11307,0.11481 -0.21775,0.0564 -0.22207,0.0794 -0.22207,1.18019 0,0.54739 0.0147,1.03382 0.0326,1.08095 0.0629,0.16541 0.25401,0.14591 0.32198,-0.0328 0.035,-0.0922 0.18749,-0.78681 0.57962,-2.64116 0.33848,-1.60062 0.34212,-1.61624 0.39425,-1.69631 0.0263,-0.0404 0.0876,-0.0948 0.13627,-0.12085 0.12567,-0.0673 0.16707,-0.24662 0.15278,-0.66185 -0.017,-0.49403 0.002,-0.47976 -0.68089,-0.50196 -0.29856,-0.01 -0.55602,-0.0309 -0.57214,-0.047 -0.0382,-0.0383 -0.0382,-0.60845 0,-0.64676 0.0161,-0.0162 0.27358,-0.0373 0.57214,-0.047 0.63101,-0.0205 0.65109,-0.0301 0.67794,-0.32369 0.009,-0.10331 0.033,-0.20769 0.0523,-0.23194 0.0193,-0.0242 0.1102,-0.0441 0.20194,-0.0441 0.32125,0 0.47923,-0.11363 0.38993,-0.28047 -0.041,-0.0766 -0.0921,-0.093 -0.37827,-0.12107 -0.32797,-0.0322 -0.49493,-0.16996 -0.52727,-0.43496 -0.0196,-0.16038 0.0658,-0.34253 0.2104,-0.44863 0.0864,-0.0634 0.16135,-0.0747 0.5661,-0.0852 0.26445,-0.007 0.5277,0.004 0.60769,0.0259 0.19794,0.0533 0.33563,0.20778 0.35741,0.40102 0.0234,0.20754 -0.0576,0.35754 -0.25817,0.47801 -0.16332,0.0981 -0.21454,0.19379 -0.17329,0.32374 0.0357,0.11263 0.15817,0.14163 0.59786,0.14163 0.28497,0 0.40999,0.0132 0.43725,0.046 0.0251,0.0303 0.0417,0.43471 0.0484,1.18496 l 0.0102,1.13897 0.0833,0.0674 c 0.0775,0.0628 0.15123,0.0674 1.06875,0.0674 h 0.98548 l 0.0866,-0.0866 0.0866,-0.0866 v -1.34329 c 0,-1.06089 0.0102,-1.36773 0.0486,-1.45955 0.0558,-0.13349 0.20593,-0.21744 0.48281,-0.26995 0.2427,-0.046 1.61186,-0.0443 1.89962,0.002 0.27898,0.0453 0.58503,0.1911 0.69789,0.33256 0.0467,0.0585 0.38402,0.6859 0.74957,1.3941 0.36554,0.7082 0.71174,1.33924 0.76934,1.40229 0.085,0.0931 0.1315,0.11466 0.24692,0.11466 0.0874,0 0.1743,-0.026 0.22547,-0.0674 0.0822,-0.0665 0.0835,-0.0783 0.10092,-0.8833 0.0189,-0.87474 0.0206,-0.88201 0.20445,-0.88324 0.0445,-2.8e-4 0.11994,-0.0395 0.16757,-0.0871 0.0853,-0.0853 0.0866,-0.0956 0.0866,-0.70285 0,-0.59328 0.003,-0.61997 0.0822,-0.71598 0.0452,-0.0548 0.0938,-0.13132 0.10799,-0.16995 0.0361,-0.0983 0.72716,-5.01277 0.7265,-5.16647 -2.8e-4,-0.069 -0.0151,-0.14848 -0.0328,-0.17653 -0.0197,-0.0312 -0.019,-0.0758 0.002,-0.11466 0.0318,-0.0595 0.11536,-0.0636 1.2814,-0.0636 1.36735,0 1.34935,-0.003 1.23034,0.20437 -0.0533,0.0929 -0.0517,0.14112 0.024,0.70838 0.0583,0.43713 0.0987,0.63047 0.14352,0.68584 0.0591,0.0731 0.0942,0.0777 0.68046,0.0882 0.46954,0.008 0.62773,0.0227 0.65819,0.0594 0.0571,0.0688 -0.0416,0.12537 -0.62207,0.35627 -0.269,0.10701 -0.51687,0.22719 -0.55082,0.26707 -0.0937,0.10998 -0.0811,0.33078 0.0248,0.43671 0.0864,0.0863 0.0887,0.0866 0.82021,0.0871 0.40349,2.9e-4 0.75502,0.0141 0.78118,0.0307 0.0262,0.0166 0.042,0.06 0.0353,0.0965 -0.01,0.0521 -0.16288,0.11712 -0.71313,0.3027 -0.38546,0.13001 -0.73264,0.26495 -0.7715,0.29987 -0.0628,0.0564 -0.0683,0.0922 -0.049,0.32204 0.024,0.28714 0.14583,1.15758 0.20165,1.44089 0.0198,0.10037 0.0613,0.20356 0.0923,0.2293 0.0325,0.027 0.18785,0.0549 0.36711,0.066 0.17092,0.0106 0.32329,0.0317 0.3386,0.0469 0.0153,0.0153 0.0358,0.3216 0.0455,0.68076 0.0216,0.79953 0.0144,0.78768 0.47786,0.78768 0.34153,0 0.46035,-0.0359 0.51483,-0.15544 0.0608,-0.13337 0.01,-0.25788 -0.14669,-0.35651 l -0.14044,-0.0887 v -0.45111 c 0,-0.30383 0.0138,-0.46493 0.0423,-0.49344 0.0549,-0.0549 0.35434,-0.0549 0.40922,0 0.0299,0.0299 0.0423,0.2371 0.0423,0.70715 0,0.65883 7.8e-4,0.66561 0.0866,0.75142 0.14657,0.14658 0.58585,0.10537 0.6383,-0.0599 0.0265,-0.0836 0.0759,-0.0836 0.10243,0 0.0298,0.094 0.1706,0.14646 0.39302,0.14646 0.15891,0 0.20963,-0.0157 0.28057,-0.0866 0.0806,-0.0806 0.0866,-0.1115 0.0866,-0.44505 v -0.35845 l -0.14111,-0.12899 -0.14112,-0.12899 v -0.40669 c 0,-0.26927 0.0143,-0.42099 0.0423,-0.44902 0.0548,-0.0548 0.31911,-0.0548 0.37394,0 0.0307,0.0307 0.0423,0.28807 0.0423,0.93647 v 0.89413 l 0.0883,0.0883 0.0883,0.0883 0.55551,-0.0177 c 0.30553,-0.01 0.6071,-0.0173 0.67016,-0.0168 0.66541,0.006 1.34875,0.008 1.41993,0.004 0.0485,-0.002 0.36171,0.004 0.69602,0.0136 l 0.60783,0.0181 0.0889,-0.0889 0.0889,-0.0889 0.004,-2.33876 c 0.002,-1.28631 0.0151,-2.37844 0.0293,-2.42695 0.0208,-0.0709 0.034,-0.0397 0.0673,0.15875 0.0344,0.20439 0.46425,4.43169 0.46425,4.56516 0,0.023 0.039,0.0808 0.0866,0.12839 0.0849,0.0849 0.0977,0.0866 0.66776,0.0866 0.4813,0 0.59069,0.01 0.6366,0.0554 0.047,0.047 0.0554,0.17294 0.0554,0.83063 v 0.77519 l 0.0866,0.0866 0.0866,0.0866 h 2.06009 c 1.38366,0 2.095959,0.0125 2.169339,0.0381 0.1379,0.0481 0.18034,0.15966 0.32613,0.85749 0.0603,0.28884 0.12427,0.56343 0.14205,0.61019 0.0278,0.0732 0.0127,0.10366 -0.10854,0.21903 -0.12123,0.11533 -0.14086,0.15492 -0.14086,0.28411 0,0.12366 0.0211,0.17122 0.11994,0.27004 l 0.11995,0.11995 h 0.50079 c 0.65662,0 0.77625,-0.0655 0.77625,-0.425 v -0.13945 h 0.19635 c 0.35259,0 0.30889,-0.0719 0.76164,1.25236 0.23729,0.69405 0.33534,0.93654 0.40296,0.9966 l 0.0894,0.0794 1.41797,-7.8e-4 c 1.71151,-9.4e-4 1.57318,0.0402 1.60974,-0.47879 0.0271,-0.38423 0.0471,-0.43896 0.21984,-0.60048 0.18511,-0.1731 0.28526,-0.18994 1.12936,-0.18994 0.93877,0 0.95326,-0.004 1.12017,-0.32137 0.20404,-0.38778 0.48322,-0.79402 0.61446,-0.89413 0.0693,-0.0529 0.18706,-0.10432 0.26162,-0.11432 0.155,-0.0208 0.61811,0.0624 0.973,0.17483 l 0.24162,0.0765 0.21699,-0.08 c 0.11935,-0.044 0.24874,-0.0881 0.28755,-0.098 l 0.0706,-0.018 -0.0706,0.0556 c -0.0388,0.0306 -0.14199,0.10772 -0.22931,0.17136 -0.0873,0.0636 -0.16364,0.14938 -0.16963,0.19054 -0.0148,0.10186 0.16423,0.66599 0.24181,0.76186 0.0601,0.0743 0.0932,0.0781 0.83306,0.095 0.85281,0.0195 0.89446,0.0295 1.09862,0.262 0.0601,0.0685 0.11913,0.17673 0.1311,0.24054 0.0321,0.17136 0.004,2.73222 -0.03,2.76655 -0.0349,0.0348 -49.885039,0.051 -50.009109,0.0162 z m 12.79183,-3.84805 c 0.073,-0.0445 0.12462,-0.11254 0.14709,-0.19389 0.0502,-0.18192 -0.008,-0.35962 -0.14709,-0.4459 -0.10116,-0.0629 -0.16482,-0.069 -0.63213,-0.0599 -0.51504,0.01 -0.52051,0.0109 -0.61736,0.10789 -0.081,0.0811 -0.0977,0.12834 -0.0977,0.2763 0,0.157 0.0139,0.19086 0.11521,0.28142 l 0.11521,0.10294 0.50215,-1.5e-4 c 0.43512,-10e-5 0.51717,-0.009 0.61464,-0.0687 z m 1.78601,0.0294 c 0.21473,-0.10982 0.2762,-0.43309 0.11534,-0.60666 -0.11635,-0.12555 -0.18709,-0.13742 -0.73909,-0.12403 -0.47024,0.0114 -0.4815,0.0135 -0.57731,0.10944 -0.081,0.0811 -0.0977,0.12834 -0.0977,0.2763 0,0.157 0.0139,0.19086 0.1152,0.28142 l 0.11521,0.10294 h 0.49566 c 0.29554,0 0.52676,-0.0159 0.5727,-0.0394 z m 1.83445,0 c 0.13541,-0.0692 0.19896,-0.18061 0.19896,-0.34865 0,-0.16804 -0.0635,-0.2794 -0.19896,-0.34865 -0.046,-0.0235 -0.27824,-0.0394 -0.57679,-0.0394 h -0.49974 l -0.11994,0.11995 c -0.0983,0.0983 -0.11995,0.14664 -0.11995,0.26811 0,0.12147 0.0216,0.16978 0.11995,0.26811 l 0.11994,0.11995 h 0.49974 c 0.29855,0 0.53075,-0.0159 0.57679,-0.0394 z m 1.85955,-0.0207 c 0.14043,-0.0968 0.17311,-0.15924 0.1743,-0.3331 9.9e-4,-0.14413 -0.0139,-0.17714 -0.12358,-0.27341 l -0.1247,-0.10949 h -0.51383 -0.51383 l -0.11994,0.11995 c -0.0983,0.0983 -0.11994,0.14664 -0.11994,0.26811 0,0.12147 0.0216,0.16978 0.11994,0.26811 l 0.11994,0.11995 h 0.50721 c 0.42021,0 0.52217,-0.0103 0.59443,-0.0601 z m 1.88992,-0.0598 c 0.0983,-0.0983 0.11994,-0.14664 0.11994,-0.26811 0,-0.12147 -0.0216,-0.16978 -0.11994,-0.26811 l -0.11994,-0.11995 h -0.51859 -0.51858 l -0.11995,0.11995 c -0.0983,0.0983 -0.11994,0.14664 -0.11994,0.26811 0,0.12147 0.0216,0.16978 0.11994,0.26811 l 0.11995,0.11995 h 0.51858 0.51859 z m 1.83444,0 c 0.0983,-0.0983 0.11995,-0.14664 0.11995,-0.26811 0,-0.12147 -0.0216,-0.16978 -0.11995,-0.26811 l -0.11994,-0.11995 h -0.51858 -0.51859 l -0.11994,0.11995 c -0.0983,0.0983 -0.11995,0.14664 -0.11995,0.26811 0,0.12147 0.0216,0.16978 0.11995,0.26811 l 0.11994,0.11995 h 0.51859 0.51858 z m 1.83445,0 c 0.0983,-0.0983 0.11994,-0.14664 0.11994,-0.26811 0,-0.12147 -0.0216,-0.16978 -0.11994,-0.26811 l -0.11995,-0.11995 h -0.51858 -0.51858 l -0.11995,0.11995 c -0.0983,0.0983 -0.11994,0.14664 -0.11994,0.26811 0,0.12147 0.0216,0.16978 0.11994,0.26811 l 0.11995,0.11995 h 0.51858 0.51858 z m 1.83444,0 c 0.0983,-0.0983 0.11995,-0.14664 0.11995,-0.26811 0,-0.12147 -0.0216,-0.16978 -0.11995,-0.26811 l -0.11994,-0.11995 h -0.51383 -0.51383 l -0.1247,0.10949 c -0.10219,0.0897 -0.1247,0.134 -0.1247,0.24529 0,0.17589 0.053,0.28817 0.17025,0.36094 0.0762,0.0473 0.19163,0.0587 0.60057,0.0595 l 0.50624,9.4e-4 z m 5.43615,0.051 c 0.23844,-0.14539 0.22395,-0.5257 -0.0249,-0.65441 -0.0919,-0.0475 -0.20222,-0.0558 -0.61943,-0.0464 -0.49252,0.011 -0.51038,0.0141 -0.59918,0.103 -0.1798,0.18 -0.12299,0.54124 0.0992,0.63055 0.0435,0.0175 0.29346,0.0328 0.5554,0.0339 0.41229,0.002 0.49139,-0.007 0.58898,-0.0666 z m 1.79011,0.0283 c 0.27037,-0.12318 0.27037,-0.5715 0,-0.69468 -0.10972,-0.05 -0.96127,-0.0549 -1.08914,-0.006 -0.28844,0.10967 -0.29002,0.59061 -0.002,0.70837 0.11052,0.0452 0.98903,0.0393 1.09146,-0.007 z m 1.8301,0.001 c 0.19089,-0.0976 0.25823,-0.34642 0.15026,-0.5552 -0.08,-0.15469 -0.188,-0.18151 -0.73103,-0.18151 h -0.49575 l -0.12443,0.12443 c -0.11411,0.11411 -0.12294,0.13762 -0.10648,0.28365 0.0185,0.16441 0.0975,0.28443 0.22032,0.33469 0.10867,0.0445 0.99799,0.0395 1.08711,-0.006 z m 1.858959,-0.0193 c 0.11456,-0.0677 0.17602,-0.18265 0.17602,-0.32931 0,-0.14666 -0.0615,-0.26163 -0.17602,-0.32931 -0.0802,-0.0474 -0.19634,-0.0588 -0.600249,-0.0588 h -0.50079 l -0.11994,0.11995 c -0.0983,0.0983 -0.11995,0.14664 -0.11995,0.26811 0,0.12147 0.0216,0.16978 0.11995,0.26811 l 0.11994,0.11995 h 0.50079 c 0.403909,0 0.520039,-0.0114 0.600249,-0.0588 z m -14.569289,-5.72724 c 0.0991,-0.053 0.12082,-0.24469 0.0538,-0.47513 -0.0319,-0.10961 -0.0494,-0.22619 -0.039,-0.25906 0.0255,-0.0803 -0.0682,-0.64756 -0.12423,-0.75202 -0.0261,-0.0487 -0.0468,-0.22933 -0.05,-0.436 -0.005,-0.29668 -0.0203,-0.38758 -0.0996,-0.57161 -0.0782,-0.18168 -0.0878,-0.23558 -0.0567,-0.31742 0.0459,-0.1207 0.0106,-0.47389 -0.0645,-0.64555 -0.035,-0.0799 -0.056,-0.24796 -0.0596,-0.47625 -0.004,-0.2643 -0.0216,-0.38298 -0.0694,-0.47317 -0.044,-0.0829 -0.058,-0.16364 -0.0452,-0.25929 0.0203,-0.15161 -0.0288,-0.55343 -0.0857,-0.70054 -0.0603,-0.1559 -0.15306,-0.17214 -0.98318,-0.17214 -0.75058,0 -0.77506,0.002 -0.86357,0.0794 -0.1024,0.0892 -0.15923,0.34518 -0.15958,0.71876 -1.1e-4,0.11883 -0.0252,0.28552 -0.0558,0.37042 -0.0306,0.0849 -0.062,0.27343 -0.0697,0.41895 -0.008,0.14552 -0.0305,0.34396 -0.0505,0.44097 -0.10204,0.49522 -0.10887,0.57844 -0.0575,0.70134 0.0469,0.11221 0.0447,0.12824 -0.0328,0.23864 -0.11218,0.15983 -0.18913,0.68659 -0.12586,0.86154 0.038,0.10517 0.0344,0.13045 -0.031,0.219 -0.0759,0.10269 -0.19648,0.7372 -0.164,0.86317 0.009,0.0338 -0.006,0.13495 -0.0333,0.22476 -0.027,0.0898 -0.0396,0.20143 -0.0279,0.24804 0.0475,0.18915 0.0455,0.18893 1.69908,0.18893 0.96414,0 1.5537,-0.0132 1.59577,-0.0357 z m -25.9386,9.11097 c 0.0104,-0.5198 0.0483,-0.69988 0.15445,-0.73356 0.15642,-0.0497 0.18787,0.0473 0.20696,0.63773 l 0.0176,0.54571 -0.19402,-2e-5 -0.19403,-2e-5 z m 0.96113,-0.0999 c 0.0158,-0.49173 0.0249,-0.555 0.0861,-0.59979 0.19692,-0.14398 0.24579,-0.0326 0.26666,0.60795 l 0.0176,0.54157 -0.19402,-1e-5 -0.19403,-1e-5 z m 54.500889,0.5268 c -0.002,-0.0166 -0.003,-0.15713 -0.002,-0.31235 0.002,-0.50235 0.16422,-0.87854 0.52997,-1.22735 0.25094,-0.2393 0.49385,-0.36002 0.86885,-0.43177 0.38519,-0.0737 5.75009,-0.0746 6.16258,-0.001 0.34352,0.0613 0.65389,0.22383 0.92463,0.4843 l 0.20781,0.19994 -0.13726,0.0389 c -0.34767,0.0986 -3.973,0.70813 -5.57004,0.93647 -1.54278,0.22059 -2.97792,0.37106 -2.98426,0.3129 z m -26.520149,-8.88402 c -0.10198,-0.11614 -0.1113,-0.14723 -0.1113,-0.37123 0,-0.20838 0.0104,-0.25006 0.0706,-0.28224 0.0501,-0.0268 0.091,-0.0268 0.14111,0 0.0628,0.0336 0.0705,0.0736 0.07,0.36284 -6.9e-4,0.4147 -0.025,0.4562 -0.17039,0.29063 z"
       id="path1020" /></g></svg>
