<?xml version="1.0" encoding="UTF-8" standalone="no"?>
<!-- Created with Inkscape (http://www.inkscape.org/) -->

<svg
   width="99.385498mm"
   height="28.81604mm"
   viewBox="0 0 99.385498 28.81604"
   version="1.1"
   id="svg5"
   xml:space="preserve"
   inkscape:export-filename="3.svg"
   inkscape:export-xdpi="96"
   inkscape:export-ydpi="96"
   xmlns:inkscape="http://www.inkscape.org/namespaces/inkscape"
   xmlns:sodipodi="http://sodipodi.sourceforge.net/DTD/sodipodi-0.dtd"
   xmlns="http://www.w3.org/2000/svg"
   xmlns:svg="http://www.w3.org/2000/svg"><sodipodi:namedview
     id="namedview7"
     pagecolor="#ffffff"
     bordercolor="#000000"
     borderopacity="0.25"
     inkscape:showpageshadow="2"
     inkscape:pageopacity="0.0"
     inkscape:pagecheckerboard="0"
     inkscape:deskcolor="#d1d1d1"
     inkscape:document-units="mm"
     showgrid="false" /><defs
     id="defs2" /><g
     inkscape:label="Layer 1"
     inkscape:groupmode="layer"
     id="layer1"
     transform="translate(-40.634374,-129.69587)"><path
       style="fill:#000000;stroke-width:0.0352778"
       d="m 129.98122,158.48023 c -0.84121,-0.0796 -1.49386,-0.24937 -3.36902,-0.87652 -0.80522,-0.2693 -1.64659,-0.53434 -1.86972,-0.58896 l -0.4057,-0.0993 -28.610274,-0.018 c -26.523312,-0.0167 -28.619278,-0.0223 -28.733743,-0.0764 -0.324438,-0.15337 -1.360938,-0.3745 -2.737452,-0.58402 l -0.87852,-0.13372 -8.766527,-0.0176 -8.766528,-0.0176 v -0.2293 -0.22931 l 0.626181,-0.01 0.62618,-0.01 v -0.3827 -0.3827 l -0.343958,-0.0242 c -1.701153,-0.11995 -2.780782,-0.18733 -2.794024,-0.17438 -0.0087,0.009 -0.127806,0.55873 -0.264583,1.22262 l -0.248684,1.20706 H 42.61582 41.786792 l -0.265117,-1.28764 -0.265117,-1.28764 -0.131618,-0.0109 c -0.102565,-0.009 -0.135082,-0.028 -0.14731,-0.0882 -0.01673,-0.0824 -0.04614,-0.58535 -0.07465,-1.2767 -0.0096,-0.23283 -0.07747,-0.8802 -0.150824,-1.43859 -0.07335,-0.55839 -0.125888,-1.02273 -0.116748,-1.03187 0.0091,-0.009 0.13135,-0.0166 0.271577,-0.0166 h 0.254959 l -0.0025,-0.15875 -0.0025,-0.15875 h -0.258329 -0.258328 v -0.17639 -0.17639 h 0.26364 0.26364 l 0.0098,-0.52035 0.0098,-0.52034 h 0.617361 0.617361 l 0.0098,0.52034 0.0098,0.52035 h 0.403808 0.403809 l 0.0098,-0.52035 0.0098,-0.52034 h 0.617361 0.617361 l 0.01764,0.51152 0.01764,0.51153 0.821307,0.009 c 0.854464,0.01 0.96022,-0.005 0.96022,-0.13418 0,-0.0612 -0.02478,-0.0693 -0.211666,-0.0693 -0.201708,0 -0.211667,-0.004 -0.211667,-0.0873 v -0.0873 l -0.590903,-0.01 c -0.79105,-0.013 -0.79105,-0.077 0,-0.0899 l 0.590903,-0.01 v -0.0874 c 0,-0.0862 0.0039,-0.0873 0.305741,-0.0873 0.168157,0 0.295986,-0.01 0.284064,-0.0217 -0.01192,-0.0119 0.04368,-0.0914 0.123565,-0.17664 0.198223,-0.21149 0.301489,-0.23273 1.064432,-0.21893 0.625001,0.0113 0.642306,0.0136 0.805357,0.1095 0.277858,0.16333 0.422992,0.50681 0.350493,0.82948 l -0.03338,0.14854 h 0.419584 0.419583 v -0.75639 c 0,-0.41601 0.01378,-0.76491 0.03063,-0.77532 0.01685,-0.0104 0.61216,-0.02 1.322917,-0.0214 l 1.292284,-0.002 v -0.24529 -0.2453 H 52.1587 c -0.12006,0 -0.123472,-0.004 -0.123472,-0.13794 v -0.13795 l -0.565192,-0.005 c -0.60563,-0.005 -0.652241,-0.0117 -0.686049,-0.0998 -0.09761,-0.25437 0.838959,-0.65067 1.611592,-0.68193 0.110067,-0.004 0.199136,-0.0173 0.19793,-0.0286 -0.0012,-0.0113 -3.17e-4,-0.0642 0.002,-0.11751 l 0.0042,-0.097 h 0.617361 0.617362 v 0.11823 0.11823 l 0.696736,0.0245 c 0.747672,0.0263 0.759058,0.0295 0.807926,0.22408 0.0737,0.29352 -0.235286,0.52779 -0.717943,0.54434 -0.143409,0.005 -0.148481,0.009 -0.15875,0.13165 -0.01023,0.12201 -0.01608,0.12698 -0.162341,0.13752 l -0.151732,0.0109 0.0071,0.24408 0.0071,0.24407 3.045551,0.001 3.045552,0.001 0.0095,-0.82057 0.0095,-0.82058 4.859513,-0.009 4.859514,-0.009 v 0.33527 0.33526 h 1.375494 1.375494 l 0.0092,-1.70215 0.0092,-1.70215 0.237092,-0.0104 0.237092,-0.0104 0.08509,-0.27181 c 0.0468,-0.1495 0.280021,-0.91873 0.518264,-1.70939 l 0.433169,-1.43757 0.849783,-0.004 c 0.46738,-0.002 0.86169,-0.002 0.876242,0 0.01455,0.002 0.02646,-0.32125 0.02646,-0.71901 v -0.72319 h 0.194028 0.194028 v 0.72147 0.72147 h 0.63421 0.634213 l 0.0096,-0.64209 0.0096,-0.6421 0.219815,-0.0105 0.219816,-0.0105 0.0095,-0.78327 0.0095,-0.78326 h 0.246944 0.246945 l 0.0095,0.78493 0.0095,0.78493 h 0.208908 c 0.114899,0 0.217039,0.0132 0.226977,0.0292 0.0099,0.0161 0.02051,0.23039 0.02348,0.47625 l 0.0054,0.44701 h 0.384291 0.384293 v 0.84255 0.84255 l 0.10306,-0.004 c 0.0567,-0.002 0.10243,-0.0124 0.10166,-0.0223 -7.8e-4,-0.01 4.9e-4,-0.38722 0.003,-0.83834 l 0.004,-0.82021 h 0.47625 0.47625 v 0.84667 c 0,0.82315 0.002,0.84667 0.0706,0.84667 0.0643,0 0.0706,-0.0235 0.0706,-0.26459 v -0.26458 h 0.22931 0.2293 v 0.26458 0.26459 h 0.10583 0.10584 v -0.26459 -0.26458 h 0.21166 0.21167 v 0.26458 0.26459 h 0.17639 0.17639 v 1.04008 1.04007 l 0.87312,0.009 0.87313,0.009 0.01,0.74965 0.01,0.74965 h 0.31092 c 0.22302,0 0.31208,-0.0125 0.31504,-0.0441 0.002,-0.0243 0.0707,-0.7172 0.15216,-1.53988 0.12865,-1.29993 0.14204,-1.51242 0.10219,-1.62278 -0.0252,-0.0698 -0.15317,-0.38099 -0.28434,-0.69143 -0.87465,-2.07004 -1.26543,-2.99917 -1.47236,-3.50073 l -0.23626,-0.57266 -0.46743,-6e-4 -0.46743,-6e-4 v -0.0882 -0.0882 l 0.55562,-0.004 c 0.3056,-0.002 0.57547,-0.002 0.59972,0.002 0.0302,0.004 0.0441,-0.0503 0.0441,-0.17221 0,-0.13785 0.0124,-0.17793 0.0551,-0.17793 0.041,0 0.0523,-0.0295 0.0441,-0.11465 l -0.011,-0.11466 -0.45862,-0.0189 c -0.34603,-0.0143 -0.49169,-0.035 -0.59338,-0.0846 -0.52055,-0.25349 -0.6491,-0.93372 -0.2534,-1.34087 0.24814,-0.25531 0.31785,-0.26658 1.64884,-0.26658 0.72917,0 1.21733,0.0145 1.31457,0.0389 0.19048,0.048 0.41837,0.23772 0.51914,0.43227 0.0547,0.10567 0.076,0.2111 0.0766,0.38073 7.7e-4,0.19965 -0.0148,0.25991 -0.10421,0.4046 -0.122,0.19734 -0.33202,0.3572 -0.52938,0.40298 -0.0762,0.0177 -0.29004,0.0325 -0.47526,0.033 l -0.33674,8.4e-4 -0.008,0.12347 c -0.006,0.091 0.006,0.12347 0.0457,0.12347 0.0413,0 0.054,0.0415 0.054,0.17639 v 0.17639 h 0.63284 0.63284 l 0.0197,-0.14993 c 0.0228,-0.1726 0.0849,-0.82968 0.086,-0.9084 3.9e-4,-0.0291 0.0319,-0.35454 0.07,-0.7232 0.0381,-0.36865 0.0778,-0.76156 0.0882,-0.87312 l 0.019,-0.20285 h -0.26387 -0.26386 l 0.01,-0.43215 0.01,-0.43215 1.10601,-0.009 c 0.8604,-0.007 1.1023,-0.019 1.08929,-0.0529 -0.009,-0.024 -0.0371,-0.13488 -0.0621,-0.24644 -0.0356,-0.15891 -0.0597,-0.20285 -0.1117,-0.20285 -0.0606,0 -0.0654,-0.0265 -0.0561,-0.30868 l 0.0102,-0.30868 0.22048,-0.0105 c 0.19159,-0.009 0.22049,-0.0195 0.22049,-0.0794 0,-0.0553 0.026,-0.0697 0.13229,-0.073 0.0728,-0.002 0.14198,-0.003 0.15382,-0.002 0.0118,0.001 0.0246,-0.12372 0.0283,-0.27804 0.007,-0.27906 0.006,-0.28058 -0.0833,-0.28058 -0.0865,0 -0.09,-0.008 -0.09,-0.21167 0,-0.20226 0.004,-0.21167 0.0882,-0.21167 h 0.0882 v -0.52916 c 0,-0.29105 -0.0119,-0.52729 -0.0265,-0.52499 -0.0145,0.002 -0.12567,0.002 -0.24694,0 l -0.22049,-0.004 v -0.10584 -0.10583 h 0.21375 c 0.16161,0 0.20729,-0.0108 0.18726,-0.0441 -0.0208,-0.0346 -0.0153,-0.035 0.0258,-0.002 0.0427,0.0345 0.0533,0.0296 0.0575,-0.0265 0.004,-0.0596 -0.0181,-0.0688 -0.16902,-0.0688 h -0.1742 v -0.12347 -0.12347 h 0.44098 0.44097 v 0.12347 c 0,0.12282 -8.5e-4,0.12347 -0.15875,0.12347 -0.13405,0 -0.15875,0.0107 -0.15875,0.069 0,0.0612 0.029,0.0702 0.25576,0.0794 0.24653,0.01 0.25577,0.0135 0.25577,0.0986 0,0.085 -0.009,0.0886 -0.25577,0.0986 l -0.25576,0.0104 v 0.52762 c 0,0.44548 0.008,0.52762 0.0529,0.52762 0.0763,0 0.0763,0.40684 0,0.43609 -0.0419,0.0161 -0.0529,0.0901 -0.0529,0.35593 v 0.33562 l 0.85548,0.009 0.85549,0.009 0.0102,0.30868 0.0102,0.30868 h -0.32819 -0.32818 l -0.23764,0.21447 c -0.13069,0.11797 -0.23763,0.22872 -0.23763,0.24612 0,0.0174 0.27384,0.036 0.60854,0.0413 l 0.60854,0.01 0.0101,0.32631 c 0.006,0.17948 0.0254,0.32632 0.0441,0.32632 0.0187,0 0.034,0.0476 0.034,0.10584 v 0.10583 h -0.4057 c -0.35177,0 -0.40569,0.008 -0.40569,0.0576 0,0.0317 -0.10295,0.18363 -0.22878,0.33765 l -0.22877,0.28005 0.27812,0.33079 c 1.54376,1.83608 5.63028,6.57863 5.66861,6.57863 0.0402,0 0.0494,-0.0989 0.0494,-0.52917 v -0.52917 h 0.0882 0.0882 v -1.25235 -1.25237 h 0.5468 0.54681 v 1.25237 1.25235 h 0.14111 0.14111 v -1.25235 -1.25237 l 0.20285,-0.004 c 0.11156,-0.002 0.21415,-0.002 0.22797,-4.4e-4 0.0138,0.002 0.026,-0.73772 0.0271,-1.64394 10e-4,-0.91878 0.0159,-1.66164 0.0335,-1.67923 0.0986,-0.0986 0.10825,0.0499 0.10825,1.67182 v 1.65597 h 0.33514 0.33514 v 1.2477 1.2477 l 0.15599,-0.004 c 0.0858,-0.002 0.15534,-0.0118 0.15457,-0.0218 -7.8e-4,-0.01 4.6e-4,-0.56982 0.003,-1.24406 l 0.004,-1.22591 h 0.21167 0.21166 v -1.65597 c 0,-1.62188 0.01,-1.77046 0.10826,-1.67183 0.0176,0.0176 0.0324,0.76064 0.0335,1.67968 l 0.002,1.64812 h 0.35144 0.35144 v 1.25236 1.25236 h 0.24039 0.240394 l 0.0792,0.97896 c 0.0436,0.53843 0.0884,1.0623 0.0996,1.16417 l 0.0204,0.18521 h 0.30697 0.30697 l 0.0232,-0.97896 c 0.0128,-0.53843 0.0233,-1.35599 0.0233,-1.81681 v -0.83784 h -0.23073 -0.23074 l 0.0102,-0.29104 0.0102,-0.29105 0.22048,-0.0105 0.22049,-0.0105 v -0.50984 -0.50985 h -0.19403 -0.19403 v -0.40569 -0.40569 h 0.19311 0.19311 l 0.01,-0.53799 0.01,-0.53799 0.16757,-0.0108 0.16757,-0.0108 v 0.54809 0.54809 l 0.82021,0.01 0.8202,0.01 0.01,0.37924 0.01,0.37923 h 0.14132 c 0.4255,0 0.74581,0.45134 0.64207,0.9047 l -0.0352,0.15364 h 0.10093 0.10094 v 0.29986 0.29986 h -0.44147 -0.44148 l 0.0197,0.11465 c 0.0381,0.22202 0.1619,0.75058 0.19413,0.82903 l 0.0326,0.0794 h 1.21931 1.21931 l 1.37818,-1.15534 c 0.758,-0.63544 1.39287,-1.16082 1.41083,-1.16751 0.0383,-0.0143 0.13609,0.0602 0.13609,0.1036 0,0.0164 -0.57278,0.50993 -1.27284,1.09665 -1.01713,0.85245 -1.25987,1.07188 -1.20827,1.0922 0.0355,0.014 0.4818,0.0266 0.99174,0.0279 0.70843,0.002 0.93067,0.0129 0.94207,0.0466 0.015,0.0443 0.12397,1.27985 0.12397,1.40561 0,0.0628 0.0313,0.0672 0.47387,0.0672 0.42076,0 0.47594,0.007 0.49232,0.0617 0.0102,0.034 0.17791,0.89767 0.3728,1.91936 l 0.35434,1.85762 v 1.41418 1.41418 h 5.78141 c 5.27064,0 5.78558,-0.005 5.82853,-0.0568 0.0409,-0.0492 0.0379,-0.055 -0.0223,-0.0432 -0.0824,0.0161 -0.14968,-0.0317 -0.39354,-0.27968 -0.40903,-0.41591 -0.44047,-1.01317 -0.0704,-1.33805 0.18393,-0.1615 0.32012,-0.18651 1.01192,-0.18586 0.71757,6.7e-4 0.84556,0.0357 1.01293,0.2776 l 0.0983,0.14208 0.2734,0.001 c 0.26776,10e-4 0.2734,0.003 0.2734,0.0895 v 0.0882 h 1.95792 c 1.71685,0 1.95792,0.007 1.95792,0.0529 0,0.0464 -0.24107,0.0529 -1.95792,0.0529 -1.07685,0 -1.95604,0.0119 -1.95374,0.0265 0.0171,0.10853 -0.0113,0.14993 -0.10295,0.14993 -0.0543,0 -0.12016,0.0199 -0.14629,0.0441 -0.038,0.0353 -0.0425,0.0353 -0.0226,0 0.0171,-0.0303 -0.003,-0.0441 -0.0654,-0.0441 -0.0496,0 -0.09,0.0119 -0.0897,0.0265 0.002,0.10542 0.0709,0.10615 1.86918,0.02 0.99925,-0.0479 1.84062,-0.0874 1.86973,-0.0879 0.18286,-0.003 12.49098,-0.55809 12.72645,-0.57412 0.22367,-0.0152 0.29104,-0.009 0.29104,0.0255 0,0.0249 -0.11509,0.17308 -0.25576,0.32927 -0.14067,0.15619 -0.50155,0.56056 -0.80196,0.8986 -0.7634,0.85903 -0.74483,0.83818 -0.95648,1.07403 -0.2881,0.32104 -0.58498,0.65339 -1.88001,2.10463 -0.76661,0.85907 -1.2135,1.33329 -1.26332,1.34055 -0.0945,0.0138 -0.53794,0.65447 -0.79813,1.15324 -0.37487,0.7186 -0.53506,1.25891 -0.53478,1.8037 3.5e-4,0.43338 0.051,0.61327 0.33231,1.17651 0.33668,0.67418 0.37072,0.87466 0.18077,1.06462 -0.1219,0.1219 -0.39854,0.18786 -0.95472,0.22764 -0.58376,0.0418 -2.65019,0.0393 -3.10444,-0.004 z m -73.975366,-2.92034 c -0.0092,-0.0148 0.0058,-0.0269 0.03316,-0.0269 0.0274,0 0.04164,0.0132 0.03164,0.0294 -0.01,0.0162 0.145487,0.028 0.34551,0.0264 0.60706,-0.005 0.205472,-0.0749 -0.474173,-0.0825 -0.130972,-0.001 -0.238129,-0.0136 -0.238125,-0.0271 3e-6,-0.0134 -0.05159,-0.0231 -0.114647,-0.0215 -0.06306,0.002 -0.21784,-0.007 -0.343958,-0.0181 -1.294032,-0.11832 -6.814189,-0.52365 -6.940903,-0.50964 -0.06306,0.007 -0.114653,-2e-5 -0.114653,-0.0155 0,-0.0155 -0.01588,-0.0282 -0.03528,-0.0282 -0.02117,0 -0.03528,0.14147 -0.03528,0.35386 v 0.35386 l 3.951677,-0.004 c 2.173423,-0.002 3.944184,-0.0156 3.935024,-0.0305 z m 0.942234,0.009 c -0.02388,-0.01 -0.07151,-0.0102 -0.105834,-0.001 -0.03432,0.009 -0.01478,0.0168 0.04343,0.0176 0.05821,7.2e-4 0.08629,-0.007 0.06241,-0.0163 z m -13.707301,-5.10822 0.0022,-0.1603 h -0.401801 -0.401755 v 0.15477 0.15477 l 0.399602,0.006 0.399602,0.006 0.0022,-0.16031 z m 3.259713,0.0955 c -0.0185,-0.034 -0.06573,-0.0958 -0.10495,-0.13735 -0.03922,-0.0416 -0.06141,-0.0855 -0.04931,-0.0976 0.0121,-0.0121 -0.389698,-0.0178 -0.892888,-0.0126 l -0.914891,0.009 -0.01085,0.14993 -0.01085,0.14993 h 1.008686 c 0.949949,0 1.006728,-0.004 0.975051,-0.0617 z m 3.130767,-0.0996 0.0081,-0.15612 h -0.510195 -0.510195 l -0.144069,0.13434 c -0.07924,0.0739 -0.144069,0.1458 -0.144069,0.15981 0,0.014 0.290782,0.0238 0.646183,0.0218 l 0.646183,-0.004 z m 11.611218,-3.33482 v -0.27852 h -0.423333 -0.423333 v 0.2836 0.28361 l 0.423333,-0.005 0.423333,-0.005 z m 0.949369,0.004 0.0068,-0.28222 h -0.425169 -0.425168 v 0.2587 c 0,0.14229 0.01058,0.26929 0.02352,0.28222 0.01293,0.0129 0.2012,0.0235 0.418367,0.0235 h 0.394847 z m 0.955631,0 v -0.28222 h -0.423333 -0.423333 v 0.28222 0.28222 h 0.423333 0.423333 z m 0.176389,0 c 0,-0.16463 -0.0147,-0.28222 -0.03528,-0.28222 -0.02058,0 -0.03528,0.11759 -0.03528,0.28222 0,0.16463 0.0147,0.28222 0.03528,0.28222 0.02058,0 0.03528,-0.11759 0.03528,-0.28222 z m 0.720309,0.26081 c 0.04392,-0.0169 0.0558,-0.0769 0.0558,-0.28222 v -0.26081 H 63.8354 63.570817 v 0.28222 0.28222 h 0.208781 c 0.11483,0 0.233892,-0.01 0.264583,-0.0214 z m 1.04358,-0.26081 v -0.28222 H 64.66443 64.241096 v 0.28222 0.28222 h 0.423334 0.423333 z m 0.155381,0.24149 c -0.01724,-0.0279 -0.0096,-0.031 0.02438,-0.01 0.121492,0.0758 0.137743,0.049 0.137743,-0.2273 v -0.2716 l -0.105833,-0.008 -0.105834,-0.008 v 0.28278 c 0,0.17551 0.01417,0.28278 0.03736,0.28278 0.02055,0 0.02603,-0.0183 0.01219,-0.0407 z m 0.797119,-0.24753 v -0.27618 h -0.194028 -0.194028 v 0.28403 0.28404 l 0.194028,-0.008 0.194028,-0.008 z m 0.9525,0.002 v -0.27852 h -0.423334 -0.423333 v 0.2836 0.28361 l 0.423333,-0.005 0.423334,-0.005 z m 0.9525,0.004 v -0.28222 h -0.423334 -0.423333 v 0.28222 0.28222 h 0.423333 0.423334 z m 0.987777,0 v -0.28222 h -0.423333 -0.423333 v 0.28222 0.28222 h 0.423333 0.423333 z m 0.9525,0 v -0.28222 h -0.423333 -0.423333 v 0.28222 0.28222 h 0.423333 0.423333 z m 18.320836,-1.6605 c -0.0208,-0.0207 -0.0596,-0.0421 -0.0864,-0.0475 -0.0268,-0.005 -0.0963,-0.0294 -0.15455,-0.0534 -0.0582,-0.024 -0.37029,-0.1431 -0.69353,-0.26467 l -0.58769,-0.22104 -0.61141,0.24444 c -0.33628,0.13445 -0.61951,0.25508 -0.62939,0.26808 -0.01,0.013 -0.0405,0.0236 -0.0679,0.0236 -0.0275,0 -0.0566,0.0198 -0.0647,0.0441 -0.0116,0.0348 0.29578,0.0441 1.45933,0.0441 1.04636,0 1.46308,-0.0109 1.4363,-0.0377 z m 0.12944,-0.72075 c 0,-0.28134 -0.0128,-0.51153 -0.0285,-0.51153 -0.0513,0 -1.07128,0.41978 -1.12175,0.46166 -0.0271,0.0225 -0.0492,0.0304 -0.0492,0.0177 0,-0.0128 -0.0345,-0.005 -0.0767,0.0178 -0.0682,0.0365 -0.007,0.0675 0.55563,0.28092 0.34776,0.13195 0.65213,0.24104 0.67638,0.24244 0.0334,0.002 0.0441,-0.12193 0.0441,-0.50899 z m -2.05192,0.0459 c 0.007,-0.0158 0.0303,-0.0183 0.0529,-0.006 0.0275,0.0155 0.0295,0.0112 0.006,-0.0129 -0.0367,-0.0374 -0.76931,-0.31975 -0.8897,-0.34294 -0.0378,-0.007 -0.0697,0.005 -0.0709,0.0277 -10e-4,0.0225 -0.0196,0.18382 -0.0409,0.35844 -0.0212,0.17463 -0.0388,0.33656 -0.0389,0.35986 -3.5e-4,0.0441 0.96,-0.33203 0.98168,-0.38455 z m 0.86445,-0.32182 c 0.20765,-0.0835 0.36531,-0.16525 0.35036,-0.1817 -0.015,-0.0164 -0.009,-0.0194 0.0136,-0.007 0.0225,0.0129 0.078,0.008 0.12348,-0.0102 0.055,-0.0223 -0.26295,-0.0335 -0.95017,-0.0335 -0.6898,3e-5 -1.02545,0.012 -1.01067,0.0359 0.0122,0.0197 0.0433,0.0277 0.0692,0.0177 0.0259,-0.01 0.0521,-0.004 0.0582,0.0129 0.0169,0.0472 0.85002,0.35103 0.9131,0.333 0.0304,-0.009 0.22523,-0.0841 0.43289,-0.16761 z m 1.16983,-0.53004 c 0,-0.0516 -0.13575,-0.11956 -0.65171,-0.32632 -0.35844,-0.14363 -0.66339,-0.26115 -0.67767,-0.26115 -0.0785,0 -1.22289,0.57986 -1.20417,0.61015 0.0125,0.0203 0.005,0.0249 -0.0184,0.0108 -0.0222,-0.0138 -0.0683,-0.009 -0.10246,0.0114 -0.0432,0.0253 0.35075,0.0339 1.29618,0.0284 1.29433,-0.008 1.35819,-0.011 1.35819,-0.0731 z m 6.19125,-0.16414 v -0.21167 h -0.51337 -0.51338 l 0.008,0.21167 0.008,0.21167 h 0.50574 0.50574 z m 0.26134,0.12347 c -0.0318,-0.0485 -0.0718,-0.0882 -0.089,-0.0882 -0.0172,0 -0.0312,0.0397 -0.0312,0.0882 0,0.0708 0.0176,0.0882 0.089,0.0882 0.0868,0 0.0876,-0.002 0.0312,-0.0882 z m 0.405,-0.12347 0.008,-0.21167 -0.25762,5.4e-4 c -0.14168,2.8e-4 -0.24173,0.0122 -0.22233,0.0265 0.0194,0.0143 0.0395,0.0464 0.0446,0.0715 0.005,0.0251 0.0509,0.10844 0.10171,0.18521 0.0756,0.11432 0.11283,0.13959 0.20537,0.13959 h 0.11299 l 0.008,-0.21167 z m 5.714824,-0.005 -0.007,-0.20667 h -0.243 -0.24301 l 0.008,0.2128 0.008,0.2128 0.24278,-0.006 0.24279,-0.006 z m -14.861054,-0.1914 c 0.30801,-0.14682 0.56535,-0.28186 0.57186,-0.30008 0.007,-0.0182 0.0253,-0.0248 0.0417,-0.0147 0.0164,0.0101 0.0382,0.005 0.0483,-0.0115 0.0102,-0.0165 -0.24282,-0.13427 -0.56218,-0.26182 -0.55946,-0.22346 -0.58123,-0.22915 -0.59659,-0.15588 -0.0171,0.0814 -0.0896,0.85123 -0.0896,0.95104 0,0.0329 0.006,0.0599 0.0132,0.0599 0.007,0 0.26525,-0.12013 0.57327,-0.26696 z m 2.30417,-0.40332 c -0.003,-0.25224 -0.0194,-0.45861 -0.0368,-0.45861 -0.0174,0 -0.0316,0.0168 -0.0316,0.0374 0,0.0205 -0.0125,0.0296 -0.0278,0.0202 -0.0153,-0.009 -0.24148,0.0865 -0.50271,0.21322 -0.39488,0.19154 -0.46306,0.23569 -0.4044,0.26189 0.28416,0.1269 0.92568,0.38228 0.96287,0.3833 0.0353,9.7e-4 0.0445,-0.10243 0.0404,-0.45736 z m 6.03461,0.14978 c 0,-0.0326 -0.73246,-1.1226 -2.99289,-4.45367 -0.53325,-0.78581 -1.1681,-1.72243 -1.41079,-2.08139 -0.68779,-1.01729 -0.93881,-1.37473 -0.96584,-1.3753 -0.0137,-2.8e-4 -0.1169,0.11329 -0.22931,0.25241 l -0.20436,0.25294 -0.009,3.169 -0.009,3.16901 h 1.60494 c 0.88272,0 1.60306,-0.0119 1.60077,-0.0265 -0.002,-0.0146 -0.002,-0.28443 0,-0.59973 l 0.004,-0.57326 h 0.3175 0.3175 v 0.59596 0.59596 l 0.44852,0.005 c 0.24668,0.003 0.45463,0.0115 0.4621,0.019 0.007,0.007 0.0348,0.24881 0.0607,0.53632 0.0259,0.2875 0.0481,0.52671 0.0494,0.53156 0.006,0.0231 0.95483,0.005 0.95483,-0.0178 z m 0.81139,-0.48309 v -0.5097 l -0.18423,-0.22231 c -0.27399,-0.33064 -4.87997,-5.71648 -5.3848,-6.29653 -0.40123,-0.46102 -0.57305,-0.62239 -0.52255,-0.49079 0.0181,0.0471 0.87938,1.3358 1.69983,2.54334 0.19775,0.29104 0.84872,1.25148 1.44661,2.1343 1.68307,2.48517 1.81299,2.67657 2.0533,3.02507 l 0.22501,0.32632 h 0.33342 0.33341 z m -7.75847,0.0679 c 0.18287,-0.0915 0.33782,-0.18052 0.34433,-0.1977 0.007,-0.0172 0.026,-0.0225 0.0433,-0.0118 0.0173,0.0107 0.0755,-0.005 0.12928,-0.0341 0.0892,-0.0488 -4.2e-4,-0.0535 -1.00981,-0.0527 -0.62921,5e-4 -1.09397,0.0141 -1.07597,0.0316 0.0651,0.0631 1.09288,0.45458 1.16322,0.44311 0.0403,-0.007 0.22282,-0.0868 0.40569,-0.1784 z m 0.79965,-0.51326 c -0.0341,-0.0201 -0.0802,-0.0253 -0.10246,-0.0116 -0.0225,0.0139 -0.0309,0.01 -0.0189,-0.01 0.0213,-0.0344 -1.03059,-0.65417 -1.13716,-0.67001 -0.0593,-0.009 -1.27228,0.65959 -1.27231,0.70107 -1e-5,0.0136 0.58338,0.0253 1.29644,0.0258 0.9107,7.2e-4 1.278,-0.01 1.23444,-0.0355 z m 0.11493,-0.8265 c 0,-0.35895 -0.009,-0.65264 -0.0201,-0.65264 -0.0329,0 -1.10678,0.60325 -1.12429,0.63159 -0.0143,0.0231 1.05159,0.66229 1.11796,0.67044 0.0145,0.002 0.0265,-0.29044 0.0265,-0.64939 z m -2.62819,0.56098 c 0.0596,-0.009 1.00541,-0.54948 1.00541,-0.57431 0,-0.0128 -0.0978,-0.0786 -0.21732,-0.1461 -0.5211,-0.29444 -0.75414,-0.42179 -0.77255,-0.42221 -0.0109,-2.5e-4 -0.0399,0.23371 -0.0645,0.5199 -0.0246,0.28619 -0.0538,0.55844 -0.0648,0.60499 -0.0157,0.0663 -0.009,0.078 0.0292,0.0539 0.0271,-0.0169 0.0651,-0.0332 0.0845,-0.0362 z m -0.26666,-0.68445 c 0.0233,-0.28134 0.0502,-0.53931 0.0599,-0.57327 0.0158,-0.0557 -0.0154,-0.0617 -0.32,-0.0617 -0.18564,0 -0.33631,0.0119 -0.33484,0.0264 0.001,0.0146 0.10225,0.25665 0.22394,0.53799 0.15077,0.34857 0.23702,0.50792 0.27072,0.50019 0.0379,-0.009 0.0398,-0.002 0.008,0.0308 -0.0227,0.0232 -0.0323,0.0657 -0.0212,0.0946 0.0406,0.10587 0.071,-0.0427 0.11339,-0.55496 z m 16.301074,0.36275 0.41556,-0.23698 -0.19929,-0.12012 c -0.10961,-0.0661 -0.30746,-0.18145 -0.43967,-0.2564 l -0.24037,-0.13628 0.008,0.49337 c 0.004,0.27136 0.0152,0.49338 0.0241,0.49338 0.009,0 0.20312,-0.10664 0.43168,-0.23697 z m 1.1449,0.20013 c -0.009,-0.0149 -0.14588,-0.10276 -0.30376,-0.19531 l -0.28704,-0.16829 -0.14509,0.0778 c -0.0798,0.0428 -0.2324,0.13308 -0.33912,0.20067 l -0.19403,0.1229 0.64287,-0.005 c 0.35358,-0.003 0.63535,-0.0175 0.62617,-0.0324 z m 0.30082,-0.20741 c 0,-0.17899 -0.0641,-0.52807 -0.10607,-0.57735 -0.013,-0.0153 -0.16227,0.0537 -0.33164,0.15341 -0.16937,0.0997 -0.2981,0.19158 -0.28607,0.20423 0.0451,0.0474 0.63737,0.38765 0.67969,0.39047 0.0297,0.002 0.0441,-0.0538 0.0441,-0.17076 z m -0.50853,-0.53689 c 0.21304,-0.12428 0.35827,-0.2299 0.34052,-0.24765 -0.017,-0.017 -0.37681,-0.0267 -0.79952,-0.0214 l -0.76857,0.01 0.40062,0.23524 c 0.22034,0.12937 0.41296,0.23653 0.42805,0.23812 0.0151,0.002 0.19459,-0.0946 0.3989,-0.2138 z m -15.050294,-0.20208 0.43964,-0.24805 -1.08839,-7.8e-4 c -0.59862,-4.2e-4 -1.07708,0.0106 -1.06324,0.0244 0.0138,0.0138 0.2502,0.15446 0.52528,0.3125 l 0.50012,0.28734 0.12347,-0.0637 c 0.0679,-0.035 0.32131,-0.17529 0.56312,-0.31172 z m 15.254624,-0.24765 c -0.07,-0.0594 -0.73596,-0.43894 -0.77023,-0.43894 -0.0402,0 -0.65418,0.42756 -0.65418,0.45555 0,0.009 0.32746,0.0154 0.72767,0.0133 0.40022,-0.002 0.71375,-0.0155 0.69674,-0.0299 z m -1.32406,-0.23349 c 0.41177,-0.27899 0.4214,-0.28848 0.3477,-0.34267 -0.0349,-0.0257 -0.16986,-0.10186 -0.29987,-0.16933 -0.13,-0.0675 -0.24166,-0.13457 -0.24813,-0.14912 -0.006,-0.0145 -0.0263,-0.0265 -0.0441,-0.0265 -0.0178,0 -0.0323,0.19028 -0.0323,0.42333 0,0.23283 0.009,0.42333 0.021,0.42333 0.0115,0 0.12663,-0.0716 0.25576,-0.15908 z m 1.31669,-0.30174 -0.0941,-0.40781 -0.25865,0.1833 c -0.14225,0.10082 -0.25896,0.19587 -0.25934,0.21123 -6e-4,0.0237 0.68323,0.43946 0.70031,0.42582 0.003,-0.003 -0.0364,-0.18825 -0.0882,-0.41254 z m -17.346894,0.23624 c 0.0192,-0.0967 0.12677,-1.25009 0.126,-1.3516 -5.7e-4,-0.0765 -0.004,-0.0769 -0.77499,-0.0805 l -0.7744,-0.004 0.15242,0.36272 c 0.0838,0.1995 0.22786,0.54205 0.32006,0.76121 l 0.16762,0.39848 0.38415,-0.006 c 0.36175,-0.005 0.38503,-0.0101 0.39914,-0.081 z m 2.53772,0.0146 c -0.086,-0.0809 -0.95802,-0.60141 -1.00752,-0.60141 -0.0599,0 -0.96823,0.48835 -1.0165,0.54652 -0.0239,0.0288 -0.0576,0.0437 -0.0748,0.0331 -0.0172,-0.0106 -0.0313,-0.002 -0.0313,0.0201 0,0.0217 -0.0127,0.0316 -0.0281,0.022 -0.0155,-0.01 -0.0512,-0.002 -0.0794,0.0159 -0.0326,0.0212 0.37691,0.032 1.12635,0.0297 1.12777,-0.003 1.17478,-0.006 1.11125,-0.066 z m 0.26705,-0.69135 c -0.004,-0.4984 -0.0118,-0.57777 -0.0543,-0.54248 -0.0274,0.0227 -0.0498,0.0308 -0.0498,0.018 0,-0.0128 -0.20605,0.0844 -0.45788,0.21617 -0.25182,0.13173 -0.453,0.25512 -0.44705,0.2742 0.0108,0.0345 0.93264,0.60987 0.98567,0.61517 0.0153,0.002 0.0258,-0.25993 0.0233,-0.58104 z m -2.02113,0.24391 c 0.27826,-0.14815 0.50594,-0.28206 0.50594,-0.29759 0,-0.0155 -0.21035,-0.155 -0.46743,-0.30995 l -0.46743,-0.28173 -0.0398,0.39411 c -0.0629,0.62268 -0.073,0.76452 -0.0545,0.76452 0.01,0 0.24499,-0.12121 0.52326,-0.26936 z m 16.143544,-0.13749 0.32215,-0.23046 -0.71265,0.004 c -0.41098,0.002 -0.71266,0.0176 -0.71266,0.0364 0,0.018 0.0147,0.0327 0.0327,0.0327 0.018,0 0.17275,0.0867 0.34396,0.19274 0.1712,0.10601 0.33222,0.19332 0.35782,0.19403 0.0256,7.1e-4 0.19151,-0.10242 0.3687,-0.22917 z M 87.572506,139.4149 c 0.2743,-0.14697 0.51381,-0.2819 0.53224,-0.29986 0.0206,-0.02 -0.35837,-0.0327 -0.98104,-0.0327 -0.71055,0 -1.00757,0.0113 -0.99126,0.0377 0.0128,0.0207 0.0463,0.0289 0.0745,0.018 0.0281,-0.0108 0.0435,-0.007 0.0341,0.008 -0.0129,0.0208 0.75096,0.51734 0.81999,0.53305 0.007,0.002 0.23723,-0.11733 0.51153,-0.26429 z m 14.748404,-0.35799 c -0.044,-0.0969 -0.0459,-0.51791 -0.002,-0.54588 0.021,-0.0135 0.0289,-0.0338 0.0175,-0.0452 -0.0305,-0.0305 -1.05305,0.55662 -1.05319,0.60476 0,0.0294 0.15248,0.0423 0.5332,0.0451 0.49905,0.004 0.53149,-1e-4 0.50483,-0.0588 z m -16.617274,-0.3544 c 0.0111,-0.0922 0.0372,-0.35807 0.058,-0.5909 0.0207,-0.23283 0.0452,-0.45939 0.0545,-0.50347 l 0.0168,-0.0801 -1.18578,0.002 c -0.90784,0.002 -1.18194,0.0124 -1.1694,0.0449 0.009,0.0233 0.13289,0.32417 0.27528,0.66857 l 0.25888,0.62618 h 0.83578 0.83579 l 0.0203,-0.16757 z m 2.29435,0.12794 c -0.0109,-0.0176 -0.0346,-0.0229 -0.0527,-0.0118 -0.0181,0.0112 -0.0328,0.006 -0.0328,-0.0124 0,-0.018 -0.18253,-0.13837 -0.40561,-0.26751 l -0.40561,-0.23481 -0.46752,0.26854 c -0.25713,0.14769 -0.47491,0.27585 -0.48395,0.2848 -0.009,0.009 0.40757,0.0138 0.92579,0.0108 0.55487,-0.003 0.93407,-0.0187 0.9224,-0.0376 z m 14.046464,-0.38586 c 0.30868,-0.17801 0.56785,-0.32972 0.57593,-0.33713 0.008,-0.007 -0.28957,-0.0135 -0.66146,-0.0135 h -0.67616 v 0.38896 0.38896 l 0.10023,-0.0518 c 0.0551,-0.0285 0.35278,-0.19747 0.66146,-0.37548 z m -13.708634,-0.24478 c 0,-0.37375 -0.0126,-0.56445 -0.0374,-0.56445 -0.0206,0 -0.026,0.0183 -0.0122,0.0407 0.0158,0.0256 0.01,0.0311 -0.0165,0.015 -0.0237,-0.0147 -0.20955,0.0704 -0.43118,0.1974 -0.21421,0.12274 -0.4216,0.24123 -0.46087,0.2633 -0.0646,0.0363 -0.0396,0.0589 0.26414,0.23761 0.33483,0.19706 0.65815,0.37489 0.68159,0.37489 0.007,0 0.0124,-0.254 0.0124,-0.56444 z m -1.68144,0.13262 c 0.27918,-0.16126 0.30383,-0.11897 -0.2514,-0.43132 -0.19963,-0.11231 -0.37293,-0.19423 -0.38511,-0.18206 -0.0122,0.0122 3.5e-4,0.0224 0.0278,0.0227 0.0335,3.7e-4 0.037,0.009 0.0106,0.0265 -0.0343,0.0226 -0.11978,0.65514 -0.11951,0.88444 0,0.0815 0.003,0.081 0.23822,-0.0492 0.13097,-0.0724 0.34666,-0.19434 0.47932,-0.27096 z m 0.92315,-0.52494 c 0.24243,-0.13816 0.44079,-0.25722 0.44079,-0.26458 0,-0.007 -0.40799,-0.0134 -0.90664,-0.0134 -0.56553,0 -0.89403,0.0125 -0.87312,0.0331 0.0582,0.0575 0.80757,0.49047 0.8539,0.49331 0.0244,0.001 0.24264,-0.11032 0.48507,-0.24848 z m 0.50637,-0.47108 c -0.007,-0.007 -0.0217,-0.01 -0.0328,-0.007 -0.0111,0.003 -0.0454,-0.0194 -0.0763,-0.0502 -0.0309,-0.0309 -0.22151,-0.15401 -0.42366,-0.27365 l -0.36753,-0.21752 -0.50868,0.2827 -0.50869,0.28271 0.96516,-0.002 c 0.53084,-0.001 0.95947,-0.008 0.9525,-0.0149 z m 0.24455,-0.89554 -0.0103,-0.28061 -0.44979,0.25045 c -0.24739,0.13775 -0.44935,0.2593 -0.44881,0.27012 5.3e-4,0.0108 0.20294,0.13954 0.44979,0.28605 l 0.44881,0.26638 0.0103,-0.25589 c 0.006,-0.14073 0.006,-0.38216 0,-0.5365 z m -2.14457,0.66155 c 0,-0.0173 0.0179,-0.0315 0.0399,-0.0315 0.0698,0 0.70095,-0.36355 0.70095,-0.40377 0,-0.0406 -0.68958,-0.46629 -0.73319,-0.4526 -0.0234,0.007 -0.0436,0.17121 -0.0915,0.73994 -0.0153,0.18147 -0.01,0.21536 0.0327,0.19907 0.0281,-0.0108 0.0512,-0.0338 0.0512,-0.0511 z m -1.86973,-0.22553 v -0.12347 h -0.22577 -0.22578 v 0.12347 0.12347 h 0.22578 0.22577 z m -1.19944,-0.27775 c 0,-0.0333 -0.049,-0.0494 -0.15714,-0.0516 -0.12417,-0.002 -0.15298,0.008 -0.13733,0.0484 0.0265,0.0691 0.29447,0.0719 0.29447,0.003 z m 0.35278,-0.004 c 0,-0.0392 -0.0412,-0.0529 -0.15875,-0.0529 -0.11759,0 -0.15875,0.0137 -0.15875,0.0529 0,0.0392 0.0412,0.0529 0.15875,0.0529 0.11759,0 0.15875,-0.0137 0.15875,-0.0529 z m 0.21166,-0.003 c 0,-0.0328 -0.024,-0.0508 -0.0588,-0.0441 -0.0885,0.0172 -0.10066,0.0996 -0.0147,0.0996 0.0433,0 0.0735,-0.0228 0.0735,-0.0555 z m 0.90842,-0.006 c 0.009,-0.0259 -0.0157,-0.0441 -0.0588,-0.0441 -0.0433,0 -0.0735,0.0228 -0.0735,0.0555 0,0.0648 0.11008,0.0553 0.1323,-0.0114 z m 0.36158,0.009 c 0,-0.0297 -0.0317,-0.0527 -0.0726,-0.0527 -0.0479,0 -0.0642,0.015 -0.0477,0.0441 0.0199,0.0353 0.0154,0.0353 -0.0226,0 -0.0624,-0.0579 -0.12747,-0.0562 -0.12747,0.003 0,0.0305 0.0482,0.0493 0.13523,0.0527 0.0988,0.004 0.13523,-0.009 0.13523,-0.0474 z m 0.30829,0.031 c 0.11946,-0.032 0.0585,-0.0837 -0.0987,-0.0837 -0.10006,0 -0.13903,0.0148 -0.13903,0.0529 0,0.0555 0.0981,0.0682 0.23773,0.0308 z m -2.53079,-0.0484 c 0,-0.0194 -0.0278,-0.035 -0.0617,-0.0347 -0.0528,4.6e-4 -0.054,0.006 -0.009,0.0347 0.0666,0.043 0.0705,0.043 0.0705,0 z m 4.85645,-0.23494 c 0.20057,-0.10981 0.36467,-0.21393 0.36467,-0.23138 0,-0.0174 0.0127,-0.0239 0.0281,-0.0143 0.0155,0.01 0.0512,0.003 0.0794,-0.015 0.032,-0.0203 -0.24007,-0.0326 -0.72664,-0.0329 -0.57408,-4e-4 -0.79032,0.011 -0.82538,0.0436 -0.038,0.0353 -0.0425,0.0353 -0.0226,0 0.0158,-0.028 0.002,-0.0441 -0.0371,-0.0441 -0.0459,0 -0.0517,0.0103 -0.0224,0.0396 0.0559,0.056 0.72621,0.45361 0.76517,0.45397 0.0177,1.8e-4 0.19631,-0.0895 0.39688,-0.19936 z m -4.85645,-0.0649 v -0.15875 h -0.14111 -0.14111 v 0.15875 0.15875 h 0.14111 0.14111 z m 0.39286,0.0794 0.005,-0.0794 0.0153,0.0794 c 0.0131,0.0681 0.0376,0.0794 0.17158,0.0794 h 0.1563 v -0.15875 -0.15875 h -0.15875 c -0.13969,0 -0.15933,0.01 -0.16356,0.0794 l -0.005,0.0794 -0.0153,-0.0794 c -0.0131,-0.0681 -0.0376,-0.0794 -0.17159,-0.0794 h -0.15629 v 0.15875 0.15875 h 0.15875 c 0.13969,0 0.15933,-0.01 0.16355,-0.0794 z m 0.54789,0.0265 c 0,-0.0291 -0.0291,-0.0529 -0.0647,-0.0529 -0.0356,0 -0.0647,0.0238 -0.0647,0.0529 0,0.0291 0.0291,0.0529 0.0647,0.0529 0.0356,0 0.0647,-0.0238 0.0647,-0.0529 z m 0.63557,-0.0242 c -0.0113,-0.0281 -0.0196,-0.0198 -0.0213,0.0213 -0.002,0.0372 0.007,0.058 0.0185,0.0463 0.0117,-0.0117 0.013,-0.0421 0.003,-0.0676 z m 0.29341,0.0217 c 0,-0.0328 -0.024,-0.0508 -0.0588,-0.0441 -0.0885,0.0172 -0.10066,0.0996 -0.0147,0.0996 0.0433,0 0.0735,-0.0228 0.0735,-0.0555 z m 0.35277,-0.10324 v -0.15875 h -0.14111 -0.14111 v 0.15875 0.15875 h 0.14111 0.14111 z m 0.38806,0 v -0.15875 h -0.15875 -0.15875 v 0.15875 0.15875 h 0.15875 0.15875 z m 0.33314,0.0803 c 0.0302,-0.0431 0.0549,-0.11456 0.0549,-0.15875 0,-0.0717 -0.0171,-0.0803 -0.15875,-0.0803 h -0.15875 v 0.15875 c 0,0.15219 0.004,0.15875 0.10383,0.15875 0.0673,0 0.12315,-0.0276 0.15875,-0.0784 z m -3.29647,-0.13326 c 0,-0.0706 -0.0176,-0.10584 -0.0529,-0.10584 -0.0636,0 -0.0643,0.007 -0.012,0.12182 0.0529,0.11618 0.0649,0.11324 0.0649,-0.016 z m -0.014,-0.36211 c 0.003,-0.1061 -0.009,-0.13178 -0.0617,-0.13178 -0.053,0 -0.0654,0.0273 -0.0654,0.14369 0,0.11788 0.0111,0.14156 0.0617,0.13179 0.0448,-0.009 0.0627,-0.0481 0.0654,-0.1437 z m 0.36009,0.0181 c -0.0104,-0.12511 -0.0181,-0.13289 -0.14325,-0.14324 l -0.13229,-0.011 v 0.14324 0.14324 h 0.14324 0.14324 z m 0.39474,-0.009 v -0.14111 h -0.15875 -0.15875 v 0.14111 0.14111 h 0.15875 0.15875 z m 0.35278,0 v -0.14111 h -0.15875 -0.15875 v 0.14111 0.14111 h 0.15875 0.15875 z m 0.38805,0.002 v -0.14274 h -0.15875 -0.15875 v 0.13452 0.13452 l 0.15875,0.008 0.15875,0.008 z m 0.74084,-0.002 v -0.14111 h -0.15875 -0.15875 v 0.14111 0.14111 h 0.15875 0.15875 z m 0.35277,0 v -0.14111 h -0.14111 -0.14111 v 0.14111 0.14111 h 0.14111 0.14111 z m 0.38806,0 v -0.14111 h -0.15875 -0.15875 v 0.14111 0.14111 h 0.15875 0.15875 z m 0.38806,0 v -0.14111 h -0.15875 -0.15875 v 0.14111 0.14111 h 0.15875 0.15875 z m 0.10583,0.0176 c 0,-0.0679 -0.0159,-0.12347 -0.0353,-0.12347 -0.0194,0 -0.0353,0.0556 -0.0353,0.12347 0,0.0679 0.0159,0.12347 0.0353,0.12347 0.0194,0 0.0353,-0.0556 0.0353,-0.12347 z m -1.63374,-0.11465 c -0.009,-0.034 -0.0161,-0.006 -0.0161,0.0617 0,0.0679 0.007,0.0957 0.0161,0.0617 0.009,-0.034 0.009,-0.0895 0,-0.12348 z m 4.01705,0.006 c -0.0377,-0.0275 -0.0879,-0.0501 -0.1117,-0.0501 -0.0238,0 -0.0485,-0.0128 -0.055,-0.0285 -0.0121,-0.0294 -0.57631,-0.37678 -0.671,-0.41311 -0.0312,-0.012 -0.24922,0.0972 -0.52521,0.26287 l -0.47189,0.28334 0.95162,-0.002 c 0.83079,-0.002 0.94294,-0.009 0.88317,-0.0523 z m -1.46693,-0.39528 c 0.20419,-0.1256 0.37625,-0.23262 0.38234,-0.23782 0.006,-0.005 -0.16558,-0.1159 -0.3815,-0.24599 -0.21592,-0.1301 -0.40115,-0.22797 -0.41163,-0.2175 -0.0189,0.0188 -0.0611,0.3642 -0.0968,0.79139 -0.0216,0.25901 -0.0755,0.26857 0.50758,-0.0901 z m 2.10384,-0.0675 c 0.0513,-0.0727 0.0474,-0.0884 -0.0601,-0.24694 -0.2575,-0.37952 -0.23915,-0.39 -0.23915,0.13646 v 0.46828 l 0.12226,-0.14009 c 0.0673,-0.077 0.1469,-0.17502 0.17702,-0.21771 z m -0.52274,-0.39654 -0.0104,-0.24793 -0.34667,0.20677 c -0.19068,0.11373 -0.36264,0.22274 -0.38215,0.24225 -0.0238,0.0238 0.0905,0.11156 0.34667,0.26629 l 0.38215,0.23081 0.0104,-0.22513 c 0.006,-0.12382 0.006,-0.33669 0,-0.47306 z m -5.9547,0.61527 c 0,-0.0291 -0.006,-0.0529 -0.0139,-0.0529 -0.008,0 -0.023,0.0238 -0.0342,0.0529 -0.0112,0.0291 -0.005,0.0529 0.0139,0.0529 0.0188,0 0.0342,-0.0238 0.0342,-0.0529 z m 0.35277,-0.0374 c 0,-0.0828 -0.011,-0.0894 -0.13229,-0.0794 -0.10626,0.009 -0.13451,0.0266 -0.14356,0.0903 -0.0101,0.0712 0.004,0.0794 0.13229,0.0794 0.13052,0 0.14356,-0.008 0.14356,-0.0903 z m 0.38806,0.002 c 0,-0.081 -0.0129,-0.0882 -0.15875,-0.0882 -0.14581,0 -0.15875,0.007 -0.15875,0.0882 0,0.081 0.0129,0.0882 0.15875,0.0882 0.14581,0 0.15875,-0.007 0.15875,-0.0882 z m 0.35278,0 c 0,-0.081 -0.0129,-0.0882 -0.15875,-0.0882 -0.14582,0 -0.15875,0.007 -0.15875,0.0882 0,0.081 0.0129,0.0882 0.15875,0.0882 0.14581,0 0.15875,-0.007 0.15875,-0.0882 z m 0.38169,-0.009 c 0.0103,-0.0724 -0.003,-0.0794 -0.14993,-0.0794 -0.1494,0 -0.16121,0.007 -0.16121,0.0902 0,0.0843 0.01,0.0895 0.14993,0.0794 0.12464,-0.009 0.15184,-0.0242 0.16121,-0.0902 z m 0.34594,-0.0276 c -0.0231,-0.0602 -0.26902,-0.0729 -0.26902,-0.0139 0,0.0208 0.0357,0.0349 0.0794,0.0314 0.13801,-0.0112 0.1675,-2.5e-4 0.17036,0.0631 0.002,0.0388 0.01,0.0449 0.021,0.0165 0.01,-0.0249 0.009,-0.0686 -0.002,-0.097 z m 0.40126,0.0364 c 0,-0.081 -0.0129,-0.0882 -0.15875,-0.0882 -0.14582,0 -0.15875,0.007 -0.15875,0.0882 0,0.081 0.0129,0.0882 0.15875,0.0882 0.14581,0 0.15875,-0.007 0.15875,-0.0882 z m 0.35277,0 c 0,-0.0789 -0.0144,-0.0882 -0.13629,-0.0882 -0.12029,0 -0.13532,0.009 -0.12797,0.0794 0.005,0.0437 0.0103,0.0833 0.0128,0.0882 0.002,0.005 0.0601,0.009 0.12797,0.009 0.10819,0 0.12347,-0.0109 0.12347,-0.0882 z m 0.38806,0 c 0,-0.081 -0.0129,-0.0882 -0.15875,-0.0882 -0.14581,0 -0.15875,0.007 -0.15875,0.0882 0,0.081 0.0129,0.0882 0.15875,0.0882 0.14581,0 0.15875,-0.007 0.15875,-0.0882 z m 0.35457,0.003 c -0.0194,-0.053 -0.0633,-0.0769 -0.15554,-0.0847 -0.11728,-0.01 -0.12847,-0.003 -0.12847,0.0797 0,0.0845 0.0105,0.0902 0.15554,0.0847 0.14195,-0.005 0.15317,-0.0123 0.12847,-0.0797 z m -2.98131,-0.23488 c 0.0357,-0.0578 0.007,-0.0609 -0.0897,-0.01 -0.0846,0.0446 -0.085,0.0465 -0.0109,0.047 0.0425,2.9e-4 0.0878,-0.0164 0.10055,-0.0371 z m 0.40424,-0.0329 c 0,-0.0601 -0.0235,-0.0706 -0.15875,-0.0706 -0.13523,0 -0.15875,0.0105 -0.15875,0.0706 0,0.0601 0.0235,0.0705 0.15875,0.0705 0.13523,0 0.15875,-0.0104 0.15875,-0.0705 z m 0.35278,0 c 0,-0.0601 -0.0235,-0.0706 -0.15875,-0.0706 -0.13523,0 -0.15875,0.0105 -0.15875,0.0706 0,0.0601 0.0235,0.0705 0.15875,0.0705 0.13523,0 0.15875,-0.0104 0.15875,-0.0705 z m 0.38805,0 c 0,-0.0601 -0.0235,-0.0706 -0.15875,-0.0706 -0.13523,0 -0.15875,0.0105 -0.15875,0.0706 0,0.0601 0.0235,0.0705 0.15875,0.0705 0.13523,0 0.15875,-0.0104 0.15875,-0.0705 z m 0.35278,0 c 0,-0.0588 -0.0235,-0.0706 -0.14111,-0.0706 -0.11759,0 -0.14111,0.0118 -0.14111,0.0706 0,0.0588 0.0235,0.0705 0.14111,0.0705 0.11759,0 0.14111,-0.0118 0.14111,-0.0705 z m 0.38806,0 c 0,-0.0601 -0.0235,-0.0706 -0.15875,-0.0706 -0.13523,0 -0.15875,0.0105 -0.15875,0.0706 0,0.0601 0.0235,0.0705 0.15875,0.0705 0.13523,0 0.15875,-0.0104 0.15875,-0.0705 z m 0.35277,0 c 0,-0.0588 -0.0235,-0.0706 -0.14111,-0.0706 -0.11759,0 -0.14111,0.0118 -0.14111,0.0706 0,0.0588 0.0235,0.0705 0.14111,0.0705 0.11759,0 0.14111,-0.0118 0.14111,-0.0705 z m 0.38806,0.0217 c 0,-0.0511 -0.10344,-0.091 -0.23812,-0.0918 -0.056,-3.5e-4 -0.0794,0.0203 -0.0794,0.0701 0,0.0601 0.0235,0.0705 0.15875,0.0705 0.11164,0 0.15875,-0.0145 0.15875,-0.0488 z m 0.14111,0.0333 c 0,-0.009 -0.0159,-0.0254 -0.0353,-0.0374 -0.0194,-0.012 -0.0353,-0.005 -0.0353,0.0156 0,0.0206 0.0159,0.0374 0.0353,0.0374 0.0194,0 0.0353,-0.007 0.0353,-0.0156 z m 3.41958,-0.2996 c -0.15332,-0.19079 -0.16869,-0.18204 -0.0312,0.0178 0.061,0.0887 0.11893,0.15323 0.12871,0.14345 0.01,-0.01 -0.0341,-0.0823 -0.0975,-0.16123 z m -1.25193,-0.15227 c 0.16682,-0.10186 0.33442,-0.20075 0.37243,-0.21974 0.038,-0.019 0.0769,-0.0547 0.0863,-0.0794 0.0136,-0.0355 -0.15328,-0.0448 -0.79895,-0.0448 -0.44889,0 -0.80608,0.0101 -0.79376,0.0224 0.0188,0.0188 0.80601,0.50134 0.82451,0.50541 0.003,7.5e-4 0.14262,-0.082 0.30944,-0.18385 z m 1.67464,-0.0757 0.21321,-0.26093 -0.46165,-0.005 -0.46165,-0.005 0.22017,0.26618 c 0.1211,0.1464 0.2329,0.26618 0.24844,0.26618 0.0156,0 0.12421,-0.11742 0.24148,-0.26093 z m -2.43118,-0.58574 v -0.10583 h -0.56444 -0.56445 v 0.10583 0.10583 h 0.56445 0.56444 z m 1.05834,0.0445 c 0,-0.13026 -0.0692,-0.15031 -0.51859,-0.15031 h -0.43391 v 0.10058 0.10058 l 0.47625,0.007 c 0.4435,0.007 0.47625,0.003 0.47625,-0.0582 z m 1.34055,-0.0431 v -0.10725 h -0.37098 -0.37097 l 0.008,0.10193 0.008,0.10193 0.36321,0.005 0.36321,0.005 z m 0.91722,-0.001 v -0.10583 h -0.40569 c -0.4015,0 -0.4057,8.5e-4 -0.4057,0.0823 0,0.0453 0.0106,0.0929 0.0235,0.10583 0.0129,0.0129 0.1955,0.0235 0.4057,0.0235 h 0.38217 z m -3.31611,-0.3175 v -0.10583 h -0.56444 -0.56445 v 0.10583 0.10583 h 0.56445 0.56444 z m 0.98778,0.0558 c 0,-0.15242 -0.0264,-0.16163 -0.46239,-0.16163 h -0.41955 v 0.10583 0.10583 h 0.44097 c 0.35715,0 0.44097,-0.01 0.44097,-0.05 z m 1.41111,-0.0558 c 0,-0.10433 -0.003,-0.10581 -0.18521,-0.1044 -0.15301,0.001 -0.20644,0.0196 -0.30734,0.10583 l -0.12215,0.1044 h 0.30735 0.30735 z m 0.91722,0 v -0.10583 h -0.40569 -0.4057 v 0.10583 0.10583 h 0.4057 0.40569 z m -1.44639,-0.0864 c 0,-0.001 -0.0476,-0.005 -0.10583,-0.007 -0.0896,-0.004 -0.10583,0.009 -0.10583,0.0808 v 0.0851 l 0.10583,-0.0782 c 0.0582,-0.043 0.10583,-0.0794 0.10583,-0.0808 z m -0.75494,0.0299 c -0.0126,-0.0327 -0.0308,-0.0516 -0.0405,-0.0419 -0.01,0.01 -0.007,0.0444 0.005,0.0771 0.0126,0.0327 0.0308,0.0515 0.0405,0.0418 0.01,-0.01 0.007,-0.0444 -0.005,-0.0771 z m 0.0141,-0.43744 v -0.24695 h -0.10864 c -0.10385,0 -0.1076,0.005 -0.0852,0.11466 0.0509,0.24877 0.10129,0.37923 0.14648,0.37923 0.0351,0 0.0473,-0.0639 0.0473,-0.24694 z m 1.161,0.0356 c 0.13506,-0.11625 0.25547,-0.22738 0.26756,-0.24695 0.0144,-0.0232 -0.13796,-0.0356 -0.4387,-0.0356 h -0.46069 v 0.24695 0.24694 h 0.19312 c 0.18516,0 0.20324,-0.009 0.43871,-0.21136 z"
       id="path1087" /></g></svg>
