<?xml version="1.0" encoding="UTF-8" standalone="no"?>
<!-- Created with Inkscape (http://www.inkscape.org/) -->

<svg
   width="80.888mm"
   height="20.066689mm"
   viewBox="0 0 80.888 20.066689"
   version="1.1"
   id="svg5"
   xml:space="preserve"
   inkscape:export-filename="4.svg"
   inkscape:export-xdpi="96"
   inkscape:export-ydpi="96"
   xmlns:inkscape="http://www.inkscape.org/namespaces/inkscape"
   xmlns:sodipodi="http://sodipodi.sourceforge.net/DTD/sodipodi-0.dtd"
   xmlns="http://www.w3.org/2000/svg"
   xmlns:svg="http://www.w3.org/2000/svg"><sodipodi:namedview
     id="namedview7"
     pagecolor="#ffffff"
     bordercolor="#000000"
     borderopacity="0.25"
     inkscape:showpageshadow="2"
     inkscape:pageopacity="0.0"
     inkscape:pagecheckerboard="0"
     inkscape:deskcolor="#d1d1d1"
     inkscape:document-units="mm"
     showgrid="false" /><defs
     id="defs2" /><g
     inkscape:label="Layer 1"
     inkscape:groupmode="layer"
     id="layer1"
     transform="translate(-70.822649,-122.22416)"><path
       style="fill:#000000;stroke-width:0.0352778"
       d="m 143.84963,142.27742 c -0.81662,-0.0764 -1.39058,-0.21933 -2.80966,-0.69941 -0.5987,-0.20255 -1.25523,-0.4126 -1.45896,-0.46679 l -0.37041,-0.0985 -22.89528,-0.0179 -22.895275,-0.0179 -0.278037,-0.0978 c -0.318123,-0.11196 -1.032357,-0.26116 -1.926824,-0.40251 l -0.617361,-0.0976 -7.073194,-0.0183 -7.073195,-0.0183 -0.01095,-0.17249 c -0.006,-0.0949 0.002,-0.18541 0.01775,-0.2012 0.01579,-0.0158 0.236876,-0.0311 0.491306,-0.034 l 0.462599,-0.005 0.0065,-0.29419 c 0.0058,-0.26243 -3.74e-4,-0.29411 -0.05702,-0.29346 -0.03493,4.1e-4 -0.508003,-0.0317 -1.051281,-0.0714 -0.543278,-0.0397 -1.076913,-0.0775 -1.185856,-0.0841 l -0.198078,-0.0119 -0.16676,0.81329 c -0.09172,0.44731 -0.182492,0.8887 -0.20172,0.98086 l -0.03496,0.16757 h -0.667355 c -0.367045,0 -0.667354,-0.007 -0.667354,-0.0156 0,-0.0228 -0.381801,-1.8698 -0.408461,-1.97603 l -0.02252,-0.0897 h -0.449262 -0.449261 l -0.16593,-0.62619 c -0.221317,-0.83519 -0.190746,-0.73479 -0.495461,-1.62733 -0.148241,-0.43422 -0.26388,-0.79514 -0.256974,-0.80204 0.0069,-0.007 0.08688,-0.0154 0.177713,-0.0188 l 0.165157,-0.006 v -0.13539 -0.13539 h -0.207552 c -0.185418,0 -0.209821,-0.008 -0.228824,-0.0794 -0.05106,-0.19052 -0.03848,-0.20285 0.20707,-0.20285 h 0.229306 v -0.15875 -0.15875 h 2.69875 2.69875 v 0.15875 0.15875 h 1.392639 1.392639 l 0.0097,-0.60854 0.0097,-0.60854 0.194028,-0.0105 0.194028,-0.0105 0.329678,-0.45831 c 0.181323,-0.25207 0.371125,-0.48546 0.421781,-0.51865 0.08013,-0.0525 0.197011,-0.0603 0.899069,-0.0603 0.758091,0 0.809997,0.004 0.857038,0.0685 0.03708,0.0507 0.05007,0.18577 0.05007,0.52034 v 0.45187 h 0.664187 0.664187 l 0.367688,-0.58104 c 0.202229,-0.31957 0.404054,-0.64104 0.4485,-0.71437 0.04445,-0.0733 0.190397,-0.30796 0.324333,-0.52139 0.15304,-0.24388 0.231151,-0.40051 0.21023,-0.42157 -0.01831,-0.0184 -0.03329,-0.0771 -0.03329,-0.13029 0,-0.1281 0.116942,-0.20662 0.30771,-0.20662 0.083,0 0.150901,-0.0168 0.150901,-0.0374 0,-0.0205 -0.01984,-0.0254 -0.0441,-0.0109 -0.03144,0.0189 -0.03057,0.01 0.003,-0.0316 0.0572,-0.0706 0.02614,-0.13179 -0.06686,-0.13179 -0.05865,0 -0.06847,-0.0253 -0.06847,-0.17639 v -0.17639 h 0.440972 0.440972 v 0.17639 c 0,0.16493 -0.0058,0.17639 -0.08875,0.17639 -0.07689,0 -0.08768,0.0142 -0.08069,0.10583 l 0.0081,0.10583 h 1.296079 1.296079 l 0.101985,-0.14993 c 0.138178,-0.20314 4.381683,-7.00285 4.381683,-7.02113 0,-0.008 -0.106969,-0.018 -0.237708,-0.0222 -0.259126,-0.008 -0.362015,-0.0645 -0.362015,-0.19745 0,-0.1746 0.0722,-0.19179 0.848614,-0.20209 l 0.721247,-0.01 0.01075,-0.16757 0.01075,-0.16757 h -0.171266 c -0.0942,0 -0.190316,-0.0191 -0.2136,-0.0423 -0.05766,-0.0577 -0.05766,-0.70434 0,-0.762 0.06626,-0.0663 1.910111,-0.0598 1.965455,0.007 0.02675,0.0322 0.03738,0.17546 0.03078,0.41451 l -0.01009,0.36527 -0.202847,0.0106 -0.202847,0.0106 v 0.17462 0.17463 h 0.997406 0.997406 l 0.246562,-0.89076 0.246562,-0.89077 0.21945,-0.0105 0.219451,-0.0105 0.0094,0.88951 c 0.0071,0.67342 0.02014,0.89308 0.05353,0.90419 0.03451,0.0115 0.0441,-0.18185 0.0441,-0.88952 v -0.90421 l 0.216255,0.0105 0.216256,0.0105 0.09776,0.35278 c 0.05377,0.19403 0.164688,0.59487 0.246489,0.89077 l 0.148731,0.53798 h 1.354057 1.35407 v -0.17639 -0.17639 h -0.16934 c -0.0931,0 -0.18838,-0.0191 -0.21166,-0.0423 -0.0577,-0.0577 -0.0577,-0.70434 0,-0.762 0.0603,-0.0603 1.90112,-0.0603 1.96144,0 0.0577,0.0577 0.0577,0.70434 0,0.762 -0.0233,0.0233 -0.12647,0.0423 -0.22931,0.0423 h -0.18697 v 0.17639 0.17639 h 0.5237 c 0.46255,0 0.53052,0.008 0.58208,0.0645 0.11644,0.12866 0.0247,0.31246 -0.16477,0.33026 l -0.11626,0.0109 0.92088,1.88736 0.92088,1.88736 1.94309,0.009 1.9431,0.009 0.11226,-0.41481 c 0.19767,-0.73039 0.18041,-0.69544 0.34962,-0.7079 0.1264,-0.009 0.15225,8.2e-4 0.18023,0.0706 l 0.0327,0.0814 0.002,-0.0813 c 0.002,-0.0747 0.0158,-0.0804 0.16981,-0.0705 l 0.16757,0.0108 0.15557,0.55328 0.15557,0.55328 0.82777,0.003 c 0.45853,0.002 0.85622,0.0187 0.89155,0.0376 0.1514,0.081 0.12285,0.30734 -0.043,0.3405 -0.0582,0.0117 -0.0926,0.0308 -0.0765,0.0427 0.0161,0.0118 0.0339,0.0453 0.0395,0.0744 0.009,0.0489 0.4922,1.20943 0.99063,2.38125 l 0.21008,0.49389 2.20983,0.009 2.20982,0.009 -0.007,-0.22272 -0.007,-0.22272 -0.12689,-0.009 c -0.0698,-0.005 -0.13948,-0.0211 -0.15487,-0.0365 -0.0154,-0.0154 -0.0234,-0.16941 -0.0177,-0.34226 l 0.0103,-0.31428 h 0.81139 0.81139 v 0.33514 0.33513 l -0.16757,0.0108 -0.16757,0.0108 v 0.22737 0.22737 h 0.43313 c 0.33491,0 0.4509,0.0125 0.51152,0.0549 0.0845,0.0592 0.10669,0.22019 0.0395,0.28734 -0.0479,0.0479 -0.0635,0.0217 1.25529,2.11688 l 0.0712,0.11316 1.26175,0.001 1.26175,0.001 0.0521,-0.11465 c 0.20428,-0.44911 0.5692,-1.35574 0.55732,-1.38466 -0.008,-0.0194 -0.0651,-0.0672 -0.12689,-0.10626 -0.26192,-0.16542 -0.37468,-0.62872 -0.21823,-0.89661 0.0965,-0.16516 0.14712,-0.17322 0.12931,-0.0206 -0.0186,0.15909 0.0221,0.37893 0.0652,0.3523 0.0182,-0.0112 0.0241,0.003 0.0132,0.0314 -0.0279,0.0726 0.18798,0.28607 0.33821,0.33439 l 0.12347,0.0397 -0.0882,-0.0741 c -0.0485,-0.0408 -0.11274,-0.0921 -0.14273,-0.11413 -0.0524,-0.0384 -0.22236,-0.29402 -0.2319,-0.34869 -0.003,-0.0146 -0.008,-0.0384 -0.013,-0.0529 -0.0268,-0.0846 0.0108,-0.45893 0.0579,-0.57657 0.0748,-0.18685 0.35561,-0.43364 0.55797,-0.49029 0.41726,-0.11683 0.89194,0.10971 1.03829,0.49551 0.0254,0.0669 0.10001,0.23034 0.16589,0.36331 0.12708,0.25647 0.14324,0.37788 0.0804,0.60412 -0.0367,0.13233 -0.21633,0.34398 -0.35988,0.42413 -0.0585,0.0326 -0.0501,0.0668 0.11312,0.45861 0.097,0.23283 0.23858,0.56621 0.31468,0.74083 l 0.13836,0.3175 0.8664,0.009 0.86641,0.009 0.0415,-0.20346 c 0.0477,-0.23411 0.2491,-0.79261 0.37802,-1.0484 0.1301,-0.25813 0.2218,-0.36927 0.38262,-0.46378 0.13792,-0.0811 0.17208,-0.0848 0.78327,-0.0848 0.40779,0 0.6714,0.0147 0.72842,0.0407 0.0823,0.0375 0.11592,0.0205 0.42664,-0.21616 0.30509,-0.23234 0.3415,-0.2511 0.38143,-0.1965 0.0397,0.0544 0.0983,0.0197 0.58818,-0.34829 0.29922,-0.22476 0.55643,-0.40866 0.57157,-0.40866 0.10565,0 -0.0425,0.14725 -0.49982,0.49665 -0.42322,0.32338 -0.52419,0.41687 -0.51138,0.47349 0.0125,0.0553 -0.049,0.11902 -0.28406,0.29438 l -0.30002,0.22382 0.091,0.14659 c 0.05,0.0806 0.14132,0.24979 0.20286,0.37591 0.10231,0.20971 0.11187,0.25869 0.11187,0.5732 v 0.3439 l 1.89729,7e-5 c 1.48631,4e-5 1.90052,0.01 1.91222,0.0442 0.008,0.0242 0.0201,0.11553 0.0263,0.20285 l 0.0114,0.15875 0.1754,0.009 c 0.0965,0.005 0.19128,-0.003 0.21069,-0.0176 0.0194,-0.0148 0.0817,-0.16175 0.13853,-0.32667 0.23162,-0.67264 0.4221,-0.96808 0.70813,-1.09835 0.11741,-0.0535 0.23297,-0.0641 0.68792,-0.0635 0.36478,5.2e-4 0.59073,0.0165 0.67876,0.0479 0.1236,0.0441 0.14087,0.0412 0.27237,-0.0456 0.0772,-0.051 0.2269,-0.16115 0.33261,-0.24476 0.16965,-0.13417 0.20056,-0.1468 0.26336,-0.10758 0.0641,0.04 0.12036,0.007 0.56599,-0.33366 0.52651,-0.40229 0.58351,-0.43743 0.61829,-0.38117 0.0122,0.0197 -0.22369,0.22305 -0.52412,0.45191 -0.34828,0.2653 -0.534,0.42835 -0.51245,0.44991 0.0186,0.0186 0.0338,0.0435 0.0338,0.0554 0,0.0119 -0.13328,0.12157 -0.29617,0.24375 -0.1629,0.12219 -0.29308,0.24321 -0.28931,0.26892 0.004,0.0257 0.0609,0.12597 0.12698,0.22279 l 0.12012,0.17603 0.23093,-0.0164 c 0.58082,-0.0414 12.78186,-0.58003 12.79692,-0.56498 0.009,0.009 0.004,0.04 -0.0127,0.068 -0.08,0.13733 -4.03681,4.52752 -4.10813,4.55805 -0.18294,0.0783 -0.7203,0.99609 -0.91916,1.56987 -0.10713,0.30907 -0.11622,0.36959 -0.11692,0.7782 l -7.8e-4,0.44307 0.2249,0.44842 c 0.42626,0.84989 0.33706,1.01471 -0.58566,1.08222 -0.4155,0.0304 -2.05228,0.0389 -2.33799,0.0122 z m -59.784027,-2.3867 c -0.01919,-0.032 -0.01246,-0.0318 0.02764,6.1e-4 0.03621,0.0293 0.197592,0.0414 0.50948,0.0382 0.419478,-0.004 0.436466,-0.007 0.209542,-0.0322 -0.135819,-0.0151 -0.328791,-0.0244 -0.428826,-0.0205 -0.100035,0.004 -0.174504,-0.005 -0.165487,-0.0195 0.028,-0.0452 -0.217859,-0.029 -0.268112,0.0176 -0.03801,0.0353 -0.04253,0.0353 -0.02261,0 0.0146,-0.0258 0.0051,-0.0441 -0.02305,-0.0441 -0.02637,0 -0.06813,0.0198 -0.0928,0.0441 -0.03596,0.0354 -0.04261,0.0338 -0.03351,-0.008 0.0093,-0.0428 -0.08852,-0.0596 -0.553106,-0.0946 -0.310444,-0.0234 -1.429631,-0.10715 -2.487083,-0.18609 -1.057451,-0.0789 -2.04567,-0.15351 -2.196041,-0.16571 l -0.273403,-0.0222 v 0.27001 0.27001 l 2.911357,-0.003 c 2.251237,-0.002 2.90561,-0.0123 2.886006,-0.045 z m -4.73021,-3.92781 c 0.12163,-0.0201 0.132291,-0.0312 0.132291,-0.13793 v -0.11605 l -1.388045,-0.004 -1.388045,-0.004 v 0.1424 0.1424 l 1.255754,-3.9e-4 c 0.690664,-2.1e-4 1.315284,-0.0102 1.388045,-0.0222 z m 46.837297,-3.77752 c 0.0597,-0.0725 0.1086,-0.14401 0.1086,-0.15899 0,-0.059 -0.0583,-0.0222 -0.11379,0.0717 -0.0322,0.0544 -0.10304,0.14408 -0.15754,0.19923 -0.0801,0.081 -0.0844,0.0925 -0.0225,0.06 0.0421,-0.0221 0.12548,-0.0995 0.1852,-0.17198 z m -15.77545,-4.67378 c -0.007,-0.14152 -0.0122,-0.0351 -0.0123,0.23658 0,0.27164 0.005,0.38742 0.0122,0.2573 0.007,-0.13012 0.007,-0.35237 0,-0.49388 z"
       id="path1154" /></g></svg>
