<?xml version="1.0" encoding="UTF-8" standalone="no"?>
<!-- Created with Inkscape (http://www.inkscape.org/) -->

<svg
   width="84.405937mm"
   height="16.401489mm"
   viewBox="0 0 84.405937 16.401489"
   version="1.1"
   id="svg5"
   xml:space="preserve"
   inkscape:export-filename="5.sv"
   inkscape:export-xdpi="96"
   inkscape:export-ydpi="96"
   xmlns:inkscape="http://www.inkscape.org/namespaces/inkscape"
   xmlns:sodipodi="http://sodipodi.sourceforge.net/DTD/sodipodi-0.dtd"
   xmlns="http://www.w3.org/2000/svg"
   xmlns:svg="http://www.w3.org/2000/svg"><sodipodi:namedview
     id="namedview7"
     pagecolor="#ffffff"
     bordercolor="#000000"
     borderopacity="0.25"
     inkscape:showpageshadow="2"
     inkscape:pageopacity="0.0"
     inkscape:pagecheckerboard="0"
     inkscape:deskcolor="#d1d1d1"
     inkscape:document-units="mm"
     showgrid="false" /><defs
     id="defs2" /><g
     inkscape:label="Layer 1"
     inkscape:groupmode="layer"
     id="layer1"
     transform="translate(-58.658761,-119.49243)"><path
       style="fill:#000000;stroke-width:0.0352778"
       d="m 83.500344,135.87611 c -3.933478,-0.27184 -9.235907,-0.95389 -13.140972,-1.69033 -1.017541,-0.1919 -2.693188,-0.56167 -3.421044,-0.75493 -0.290546,-0.0771 -0.539735,-0.12876 -0.553753,-0.11468 -0.01402,0.0141 -0.217529,0.51772 -0.452247,1.11921 -0.257874,0.66082 -0.455613,1.11804 -0.499669,1.15534 -0.06791,0.0575 -0.240563,0.0617 -2.516487,0.0617 -2.229385,0 -2.447822,-0.005 -2.491995,-0.0583 -0.03928,-0.0473 -0.05032,-0.38593 -0.05849,-1.79404 l -0.01007,-1.73573 -0.483819,-0.0797 c -1.541626,-0.25384 -1.618153,-0.55795 -0.20485,-0.81404 0.762939,-0.13825 1.237573,-0.1749 2.265019,-0.1749 h 0.992198 l 0.02187,-0.13229 c 0.01203,-0.0728 0.02204,-1.39089 0.02226,-2.92919 4.27e-4,-3.06961 -0.0086,-2.93848 0.216078,-3.12794 0.259278,-0.21861 0.211197,-0.21349 2.00681,-0.21349 1.633043,0 1.641201,3.6e-4 1.814864,0.0804 0.232311,0.10711 0.384869,0.22718 0.475984,0.37461 0.04925,0.0797 0.231749,0.78688 0.531035,2.05777 0.250801,1.065 0.465397,1.96086 0.476882,1.99078 0.02443,0.0637 -0.0364,0.0719 0.969846,-0.13033 3.151935,-0.63329 7.290399,-1.2306 11.218334,-1.61913 2.140854,-0.21177 2.561109,-0.23839 4.145139,-0.26253 l 1.516945,-0.0231 0.493888,-0.1987 c 0.55653,-0.22389 1.353876,-0.4942 1.957917,-0.66374 0.223132,-0.0626 0.417587,-0.12495 0.432122,-0.13849 0.01453,-0.0136 0.146085,-0.80172 0.292335,-1.75151 0.14625,-0.94978 0.281895,-1.78671 0.301434,-1.85984 0.02274,-0.0851 0.108826,-0.20788 0.239173,-0.34109 0.275262,-0.28131 0.380036,-0.30757 1.343357,-0.33661 0.415985,-0.0125 0.800954,-0.0317 0.855486,-0.0426 l 0.09915,-0.0198 v -0.85463 c 0,-1.06993 0.0223,-1.14738 0.330259,-1.14738 0.09111,0 0.142289,0.0242 0.196347,0.093 0.06952,0.0884 0.07312,0.13611 0.07312,0.97124 0,0.8033 0.0053,0.88046 0.06174,0.90365 0.08593,0.0353 0.772494,0.0319 0.808454,-0.004 0.0162,-0.0161 0.0347,-0.2622 0.0412,-0.54681 0.0107,-0.46664 0.0191,-0.52526 0.0855,-0.59684 0.0503,-0.0542 0.11427,-0.0794 0.2019,-0.0794 0.26176,0 0.31592,0.13319 0.31725,0.78031 l 8.3e-4,0.4099 0.12717,0.0206 c 0.0699,0.0113 0.17148,0.0118 0.22562,9.4e-4 0.12853,-0.0257 0.1411,-0.0942 0.1411,-0.76858 0,-0.49039 0.006,-0.54228 0.0719,-0.61295 0.0989,-0.10617 0.32167,-0.10617 0.42059,0 0.0656,0.0704 0.0719,0.12267 0.0719,0.59531 0,0.64955 0.0139,0.72601 0.13602,0.75048 0.13365,0.0268 4.340786,-0.11093 4.467726,-0.14622 l 0.10583,-0.0294 0.0176,-0.89327 c 0.0155,-0.78314 0.0249,-0.89784 0.0764,-0.93031 0.0426,-0.0269 0.0741,-0.0243 0.11465,0.009 0.048,0.0398 0.0559,0.16126 0.0564,0.86226 3.5e-4,0.44873 0.01,0.85003 0.0208,0.89176 0.0237,0.0883 0.13016,0.11681 0.32077,0.0859 l 0.13416,-0.0218 0.0176,-0.94144 c 0.0185,-0.98807 0.0338,-1.07803 0.16854,-0.99317 0.0542,0.0341 0.0627,0.13771 0.0784,0.95766 0.01,0.50567 0.0306,0.93236 0.0465,0.94822 0.0159,0.0159 0.24608,0.0371 0.51152,0.0472 0.54676,0.0208 0.66493,0.0594 0.86751,0.28365 0.0671,0.0742 0.13879,0.19564 0.15938,0.26977 0.0242,0.087 0.0375,0.78237 0.0376,1.96093 l 3.5e-4,1.82615 0.10568,0.0612 c 0.0581,0.0337 0.20465,0.11678 0.32561,0.18469 0.31852,0.17882 0.62476,0.50238 0.72937,0.77061 0.0466,0.11944 0.0863,0.22101 0.0882,0.2257 0.002,0.005 7.9172,0.017 17.58948,0.0274 16.7777,0.018 17.59814,0.0218 17.85056,0.0824 0.92808,0.22279 1.58031,0.57802 2.20852,1.20288 0.64732,0.64385 0.98322,1.26205 1.21815,2.24189 0.0648,0.27014 0.0805,0.43777 0.0814,0.8643 10e-4,0.58839 -0.044,0.90255 -0.19738,1.37364 -0.52648,1.61724 -1.92734,2.7772 -3.64199,3.01568 -0.19399,0.027 -8.31122,0.0362 -27.91992,0.0319 -15.205676,-0.003 -27.717988,-0.0111 -27.805301,-0.0171 z"
       id="path1221" /></g></svg>
